<?xml version="1.0" standalone="no"?>
<!DOCTYPE svg PUBLIC "-//W3C//DTD SVG 20010904//EN"
 "http://www.w3.org/TR/2001/REC-SVG-20010904/DTD/svg10.dtd">
<svg version="1.0" xmlns="http://www.w3.org/2000/svg"
 width="1920.000000pt" height="2560.000000pt" viewBox="0 0 1920.000000 2560.000000"
 preserveAspectRatio="xMidYMid meet">

<g transform="translate(0.000000,2560.000000) scale(0.100000,-0.100000)"
fill="#000000" stroke="none">
<path d="M5120 21916 c22 -13 23 -15 7 -21 -20 -8 -342 1 -356 9 -5 3 -26 -1
-46 -10 -21 -8 -48 -13 -61 -10 -13 4 -24 2 -24 -3 0 -4 -22 -11 -48 -13 -26
-3 -61 -13 -77 -24 -16 -10 -37 -17 -47 -16 -12 2 -18 -3 -18 -15 0 -21 -56
-57 -66 -42 -3 5 -19 -2 -35 -15 -17 -14 -48 -31 -69 -37 -22 -7 -40 -18 -40
-26 0 -7 -6 -13 -13 -13 -7 0 -18 -9 -25 -20 -14 -23 -115 -73 -120 -60 -4 11
-32 1 -50 -17 -15 -14 -32 -17 -32 -5 0 9 -64 7 -79 -3 -6 -3 -25 0 -41 9 -29
14 -33 13 -75 -12 -24 -15 -45 -33 -45 -39 0 -7 -7 -13 -15 -13 -21 0 -65 -48
-65 -70 0 -32 -30 -135 -40 -138 -6 -2 -10 -10 -10 -18 0 -8 -4 -14 -10 -14
-5 0 -10 -18 -10 -39 0 -35 -2 -39 -22 -34 -14 3 -18 1 -11 -4 8 -6 9 -21 1
-58 -6 -28 -13 -66 -17 -85 -5 -27 -12 -36 -30 -38 -21 -3 -23 -8 -18 -41 3
-23 -1 -44 -9 -56 -8 -10 -14 -31 -14 -46 0 -15 -7 -29 -15 -33 -8 -3 -15 -16
-15 -30 0 -14 -4 -28 -10 -31 -5 -3 -10 -14 -10 -24 0 -14 -10 -20 -40 -25
-22 -3 -40 -10 -40 -15 0 -5 -11 -12 -25 -15 -24 -6 -25 -10 -25 -83 0 -84
-22 -159 -52 -181 -10 -7 -18 -19 -18 -26 0 -7 -9 -25 -20 -39 -12 -14 -20
-40 -20 -61 0 -25 -5 -36 -15 -36 -8 0 -19 -9 -25 -20 -7 -13 -7 -20 -1 -20 6
0 -1 -11 -14 -25 -14 -13 -25 -28 -25 -33 0 -5 -10 -13 -22 -16 -22 -6 -22 -7
-5 -20 16 -13 15 -16 -20 -44 -30 -24 -37 -36 -35 -60 2 -24 -2 -31 -19 -34
-14 -2 -25 -16 -34 -42 -8 -22 -12 -43 -9 -48 3 -4 0 -8 -5 -8 -6 0 -11 -8
-11 -18 0 -10 -6 -26 -13 -37 -28 -42 -53 -132 -63 -225 -2 -25 -9 -65 -15
-90 -7 -36 -7 -149 2 -260 2 -29 21 -80 29 -80 5 0 11 -9 15 -19 3 -11 15 -23
26 -26 10 -4 19 -12 19 -19 0 -7 17 -18 38 -24 25 -8 44 -21 53 -39 8 -15 26
-40 42 -55 15 -15 27 -34 27 -43 0 -8 4 -15 10 -15 11 0 50 -85 50 -110 0 -9
12 -29 26 -43 15 -15 24 -33 21 -41 -4 -9 -2 -18 4 -22 6 -3 8 -13 5 -21 -5
-12 -1 -14 19 -9 25 6 36 -9 13 -17 -10 -3 -10 -10 2 -32 l15 -29 3 27 c4 35
22 25 22 -12 0 -30 68 -111 94 -111 9 0 16 -8 16 -19 0 -11 4 -22 10 -26 5 -3
7 -12 4 -19 -3 -8 6 -25 19 -38 15 -15 27 -42 31 -70 4 -25 13 -54 21 -64 8
-11 15 -29 15 -41 0 -16 6 -23 18 -23 21 0 47 -46 32 -55 -16 -10 -11 -25 8
-25 19 0 29 -15 52 -78 7 -18 22 -39 33 -47 12 -8 17 -20 14 -29 -4 -10 3 -22
18 -32 23 -15 65 -87 65 -112 0 -7 7 -12 16 -12 8 0 13 -4 9 -9 -3 -6 8 -25
25 -44 17 -19 28 -41 25 -48 -5 -15 37 -69 54 -69 5 0 15 -14 23 -30 7 -17 21
-33 30 -36 10 -3 18 -10 18 -15 0 -5 7 -9 15 -9 10 0 15 -10 15 -27 0 -22 2
-25 11 -13 8 12 9 11 7 -5 -1 -11 8 -35 21 -53 44 -63 67 -187 65 -352 -1 -85
-15 -202 -24 -215 -5 -5 -8 -26 -8 -45 -1 -19 -6 -60 -12 -90 -6 -30 -13 -68
-15 -85 -3 -16 -14 -93 -25 -170 -11 -77 -24 -198 -30 -270 -6 -71 -16 -182
-22 -245 -14 -150 -13 -418 2 -550 6 -58 16 -148 21 -200 5 -52 14 -117 19
-145 14 -68 35 -181 54 -295 8 -52 24 -129 35 -170 12 -41 21 -87 21 -102 0
-32 27 -145 41 -174 6 -12 12 -33 12 -48 1 -14 5 -26 8 -26 6 0 43 -88 54
-130 4 -14 17 -38 29 -55 27 -38 53 -93 56 -123 1 -4 8 -11 16 -15 8 -4 14
-16 14 -26 0 -11 7 -22 16 -25 8 -3 13 -10 10 -15 -8 -12 29 -43 39 -34 4 5 5
3 2 -3 -3 -6 3 -20 13 -32 11 -12 20 -25 20 -30 0 -5 11 -18 25 -30 14 -13 23
-27 20 -32 -3 -5 3 -14 14 -19 10 -6 22 -22 25 -36 7 -26 58 -85 75 -85 5 0
14 -15 20 -32 6 -18 32 -55 56 -82 25 -27 45 -55 45 -62 0 -22 61 -114 75
-114 8 0 11 -7 8 -20 -4 -13 6 -30 31 -55 20 -19 36 -42 36 -50 0 -9 7 -18 15
-21 8 -4 15 -11 15 -17 0 -20 43 -117 52 -117 4 0 8 -9 8 -19 0 -11 4 -22 9
-26 5 -3 17 -30 25 -60 9 -29 27 -76 41 -103 14 -28 25 -57 25 -65 0 -8 9 -17
20 -20 11 -3 20 -12 20 -21 0 -9 5 -16 11 -16 6 0 25 -11 43 -25 17 -14 36
-29 41 -33 6 -5 33 -14 60 -21 28 -7 58 -20 68 -29 10 -9 37 -22 60 -28 25 -6
41 -16 39 -23 -1 -7 8 -23 21 -35 16 -13 30 -44 40 -86 38 -154 46 -193 41
-202 -3 -5 2 -40 10 -79 9 -38 19 -95 21 -127 5 -53 11 -105 35 -272 5 -36 8
-72 8 -80 0 -8 4 -58 11 -110 6 -52 13 -126 16 -165 3 -38 8 -93 11 -122 8
-64 -6 -122 -63 -266 -24 -62 -50 -132 -58 -155 -7 -24 -20 -51 -28 -60 -7
-10 -22 -44 -33 -77 -10 -33 -35 -91 -55 -130 -20 -38 -53 -102 -73 -142 -38
-76 -130 -175 -236 -253 -30 -21 -59 -43 -65 -47 -5 -4 -28 -20 -50 -35 -22
-14 -54 -40 -72 -56 -17 -16 -47 -40 -65 -53 -18 -12 -51 -39 -74 -58 -23 -20
-107 -85 -188 -145 -80 -60 -146 -113 -146 -117 0 -5 -5 -9 -11 -9 -12 0 -49
-38 -49 -50 0 -4 -11 -12 -24 -20 -14 -7 -22 -18 -19 -26 3 -9 0 -12 -9 -9
-18 7 -33 -10 -42 -47 -5 -23 -3 -28 11 -28 29 0 172 50 187 66 8 8 21 14 28
14 8 0 31 9 53 20 22 11 43 20 48 20 4 0 55 23 112 50 109 53 151 60 212 38
21 -8 33 -19 33 -30 0 -10 7 -18 16 -18 18 0 131 -114 159 -161 22 -36 50 -75
70 -96 45 -47 49 -57 48 -107 -1 -59 -35 -149 -95 -251 -60 -100 -144 -200
-295 -352 -24 -24 -43 -47 -43 -52 0 -5 -16 -19 -35 -31 -19 -12 -38 -28 -42
-35 -7 -12 -136 -95 -148 -95 -3 0 -38 -15 -78 -34 -126 -59 -208 -96 -214
-96 -9 0 -148 -62 -268 -120 -66 -31 -138 -66 -160 -76 -22 -10 -94 -49 -160
-87 -66 -38 -142 -81 -170 -97 -27 -15 -72 -40 -100 -55 -153 -85 -231 -178
-358 -430 -86 -169 -103 -222 -182 -565 -15 -63 -47 -189 -72 -280 -25 -91
-54 -199 -65 -240 -10 -41 -23 -91 -29 -110 -5 -19 -13 -53 -18 -75 -5 -22
-28 -112 -50 -200 -23 -88 -48 -187 -55 -220 -15 -66 -39 -161 -61 -245 -8
-30 -29 -113 -46 -185 -17 -71 -47 -173 -65 -225 -123 -341 -133 -365 -217
-524 -93 -177 -113 -229 -141 -375 -40 -206 -52 -458 -37 -793 13 -293 18
-372 27 -398 3 -8 12 -60 20 -115 8 -55 16 -109 18 -120 29 -156 66 -326 75
-340 9 -16 40 -135 50 -195 24 -141 33 -223 51 -465 19 -248 24 -303 36 -405
10 -89 13 -117 23 -256 6 -78 9 -166 6 -195 -8 -80 -35 -259 -45 -299 -5 -19
-18 -87 -30 -150 -23 -125 -61 -308 -85 -407 -28 -115 -66 -103 338 -103 l352
0 17 88 c21 101 52 249 73 343 8 37 15 78 15 92 0 13 6 42 14 63 7 22 19 69
25 105 8 43 19 69 31 77 15 9 19 8 25 -6 10 -27 7 -290 -5 -311 -5 -11 -12
-62 -14 -114 -5 -107 -14 -165 -27 -173 -5 -3 -9 -11 -9 -17 0 -7 4 -6 11 3 8
11 9 -8 5 -67 l-6 -83 627 0 628 0 49 150 c26 83 55 157 63 165 8 8 17 31 20
50 6 36 23 59 23 31 0 -9 7 -16 15 -16 10 0 15 10 15 30 0 17 -5 30 -10 30 -6
0 -5 8 2 20 7 11 16 20 19 20 13 0 20 -139 9 -181 -12 -43 -6 -109 10 -109 4
0 11 18 15 40 6 34 10 40 28 38 20 -3 22 2 25 57 3 61 16 91 27 63 7 -16 45
-13 45 3 0 5 9 9 20 9 19 0 19 1 3 35 -17 35 -17 35 14 68 17 17 28 38 25 46
-11 31 21 -3 35 -38 l16 -36 9 30 c5 17 13 44 18 61 6 17 10 40 10 52 0 11 4
23 9 26 5 3 12 50 16 103 4 54 13 127 20 163 15 71 11 263 -6 317 -6 17 -12
44 -15 60 -3 15 -12 48 -20 73 -9 25 -20 72 -25 105 -9 57 -37 160 -65 235 -7
19 -15 79 -18 132 -3 54 -10 106 -15 117 -6 11 -10 30 -10 43 3 49 -22 487
-32 568 -17 140 -20 160 -30 160 -5 0 -11 -11 -15 -25 -3 -14 -14 -30 -24 -35
-16 -9 -19 -3 -25 48 -3 31 -8 92 -10 135 -2 43 -6 81 -8 84 -3 3 -11 -13 -18
-36 -7 -23 -15 -41 -19 -41 -4 0 -10 -8 -14 -18 -3 -9 -9 -23 -12 -31 -4 -9
-2 -11 5 -7 6 4 11 1 11 -6 0 -22 -41 -20 -47 3 -5 19 -6 19 -18 -3 -20 -40
-25 -68 -40 -253 -16 -182 -60 -557 -75 -630 -23 -114 -43 -197 -62 -260 -26
-89 -60 -185 -64 -185 -9 0 -25 45 -34 91 -13 65 -42 318 -71 599 -26 264 -23
591 11 940 15 152 22 301 23 460 1 250 -8 313 -62 462 -12 32 -21 65 -21 73 0
27 -41 147 -71 206 -28 56 -47 73 -71 64 -20 -7 -33 6 -50 51 -36 89 -32 253
6 267 8 3 53 57 100 119 47 62 123 154 170 203 73 78 82 90 64 93 -12 2 -27
-3 -34 -12 -6 -9 -15 -16 -20 -16 -5 -1 -67 -57 -139 -125 -153 -147 -150
-148 -140 35 7 119 19 186 55 305 38 128 70 402 54 462 -10 37 -31 27 -37 -17
-4 -35 -25 -70 -41 -70 -6 0 0 57 10 108 3 13 12 22 22 22 10 0 28 9 40 20 23
22 29 40 13 40 -6 0 -1 20 10 44 13 30 16 51 11 66 -7 19 -10 20 -21 6 -7 -8
-19 -12 -27 -9 -17 6 -12 97 11 198 18 81 40 314 37 395 -7 174 -5 195 31 335
20 77 37 154 37 170 0 17 9 62 19 100 18 65 28 104 67 260 35 144 64 211 125
290 78 102 125 153 174 190 22 16 69 58 105 94 63 62 159 130 230 162 19 9 72
34 117 57 45 23 102 49 128 57 25 9 78 31 118 49 90 40 113 50 317 130 91 35
179 71 195 80 17 8 43 20 59 26 l28 10 -27 36 c-32 42 -33 68 -7 145 29 81 62
129 133 190 69 59 223 203 309 289 73 73 185 170 195 170 16 0 234 170 254
198 19 27 111 118 300 298 189 180 265 260 315 331 26 39 64 88 84 109 20 21
56 71 81 109 70 106 114 164 131 170 8 3 30 19 48 36 19 17 39 28 47 25 16 -6
20 -42 6 -50 -22 -14 -193 -250 -201 -278 -7 -23 -4 -44 11 -87 11 -31 25 -72
30 -91 5 -19 16 -46 23 -60 8 -14 22 -54 31 -90 9 -36 27 -94 40 -130 33 -93
135 -522 155 -650 12 -82 12 -231 -1 -290 -5 -25 -12 -60 -16 -79 l-6 -34 56
7 c78 10 100 -4 204 -135 48 -62 105 -132 126 -157 21 -25 46 -56 55 -70 15
-23 16 -23 23 -6 4 11 1 34 -7 52 -9 23 -10 40 -3 59 6 18 6 30 -2 39 -17 21
-2 80 26 103 27 21 32 50 13 69 -10 10 -10 15 2 23 12 8 10 9 -7 4 -32 -9 -30
23 2 54 14 13 25 29 25 37 0 7 8 18 19 23 14 8 23 6 37 -10 10 -11 23 -18 30
-15 6 2 22 -5 34 -16 12 -11 24 -17 27 -14 3 3 13 -9 22 -27 11 -22 23 -32 38
-32 34 0 58 -40 44 -71 -9 -20 -8 -30 5 -49 10 -15 13 -33 9 -47 -14 -45 -98
-184 -136 -223 -22 -22 -55 -56 -74 -76 l-35 -36 21 -59 c19 -55 32 -143 30
-207 0 -15 4 -25 8 -23 5 3 13 -17 18 -44 6 -28 6 -51 1 -52 -5 -2 -3 -11 4
-21 12 -16 17 -15 73 19 92 57 193 140 268 220 37 40 100 97 140 127 109 82
110 85 117 186 5 83 7 89 43 131 23 27 37 54 37 71 0 15 9 55 19 90 11 35 22
80 26 99 15 76 68 153 185 271 63 63 136 130 162 147 74 51 193 106 323 151
172 59 342 148 575 299 64 43 142 93 174 112 31 19 237 155 459 301 463 306
561 370 619 401 53 30 63 36 128 79 30 20 93 61 140 91 103 66 317 227 421
317 42 36 113 97 158 135 45 38 80 74 78 80 -2 6 -19 10 -38 8 -19 -1 -110 -3
-204 -5 -93 -1 -234 -9 -313 -17 -94 -9 -145 -11 -152 -4 -31 31 -40 737 -14
1124 29 432 34 500 44 620 9 123 19 235 41 460 6 63 22 162 36 220 31 130 28
120 40 150 37 90 45 105 55 112 15 9 -14 43 -51 61 -33 16 -41 47 -12 47 14 0
22 8 26 25 3 14 8 37 11 52 3 14 1 29 -4 32 -19 12 16 232 78 496 13 56 19
120 20 215 0 74 3 180 5 235 3 55 7 146 10 202 2 56 9 111 14 122 6 10 14 45
17 77 4 38 21 87 45 137 22 43 39 89 39 103 0 21 30 64 46 64 3 0 20 11 38 25
34 26 46 24 46 -7 0 -23 5 -23 62 6 35 18 59 23 99 20 30 -1 58 0 63 4 6 3 20
7 31 8 12 1 39 14 59 28 41 27 94 41 126 33 16 -4 20 0 20 18 0 13 18 51 40
84 22 33 40 65 40 70 0 6 9 15 20 21 26 14 89 114 97 153 3 18 12 45 20 61 8
15 12 38 9 49 -3 11 0 30 6 41 6 11 11 35 10 52 -1 18 5 38 13 44 8 7 15 22
15 34 1 11 9 39 20 61 11 22 19 46 20 52 0 7 11 15 24 19 16 4 24 13 23 27 0
39 43 206 63 244 11 21 20 49 20 63 0 14 7 46 14 71 16 51 19 146 14 438 -3
183 -2 196 17 213 19 18 19 19 0 55 -12 22 -16 38 -9 40 6 2 9 35 7 89 -1 48
1 92 4 98 4 6 8 55 9 110 1 71 6 101 15 107 11 7 10 9 -3 9 -25 0 -30 30 -17
106 6 38 12 87 12 109 1 37 -1 40 -27 39 -27 -1 -28 -1 -21 45 13 99 6 252
-15 290 -13 24 -13 31 0 31 5 0 14 -19 20 -41 6 -23 15 -49 20 -58 4 -9 13
-27 19 -41 16 -38 2 66 -15 108 -15 37 -101 142 -116 142 -6 0 -26 14 -45 30
-18 17 -39 30 -46 31 -7 1 -21 2 -32 3 -21 1 -36 46 -16 46 24 0 9 28 -21 40
-45 18 -78 49 -79 74 0 20 -1 20 -11 -1 -16 -33 -32 -28 -53 15 -14 28 -19 33
-23 19 -2 -10 4 -34 13 -53 9 -20 14 -38 12 -41 -10 -9 -47 8 -47 21 0 21 -27
40 -34 24 -3 -7 -4 -4 -1 8 7 26 -28 97 -49 100 -20 3 -20 2 4 -41 25 -45 38
-115 20 -115 -6 0 -10 5 -8 12 2 6 -4 20 -15 31 -12 12 -17 28 -14 44 3 15 -1
27 -9 30 -8 3 -14 13 -14 23 0 10 -7 25 -15 34 -23 23 -19 42 5 21 24 -22 25
-16 3 30 -18 37 -33 46 -33 19 0 -8 -5 -12 -11 -9 -7 5 -5 13 5 24 17 19 11
33 -22 50 -14 7 -21 18 -18 27 6 17 -45 68 -54 53 -4 -5 -33 20 -65 57 -33 36
-61 61 -63 55 -2 -6 -8 -9 -13 -5 -19 12 -8 -6 22 -34 18 -16 27 -32 21 -36
-5 -3 -20 5 -33 18 -31 30 -57 42 -96 44 -49 3 -48 -15 2 -22 25 -4 48 -13 52
-20 5 -7 27 -25 51 -41 23 -15 42 -29 42 -31 0 -1 -17 0 -37 3 -23 3 -46 15
-59 30 -12 14 -26 23 -32 19 -12 -7 -102 47 -115 69 -4 8 -22 22 -40 30 -33
15 -53 26 -99 57 -15 10 -36 18 -46 18 -17 0 -56 29 -63 47 -2 5 -20 16 -39
26 -21 10 -28 17 -17 17 10 0 32 -7 48 -16 17 -8 36 -13 42 -11 7 2 -9 14 -36
27 -26 12 -50 26 -53 31 -8 14 59 -2 86 -21 14 -9 51 -22 82 -28 32 -6 70 -20
85 -31 32 -22 88 -38 78 -21 -3 5 -2 10 4 10 11 0 21 -10 46 -45 11 -15 17
-17 23 -8 9 14 -77 112 -115 132 -21 11 -23 9 -23 -14 0 -29 -15 -32 -57 -10
-46 23 -167 65 -189 65 -12 0 -27 7 -34 15 -7 8 -19 15 -28 15 -13 0 -13 -2 1
-18 21 -23 22 -42 2 -42 -8 0 -15 6 -15 14 0 8 -8 17 -17 20 -10 4 -29 16 -43
27 l-25 20 35 -5 c31 -5 33 -5 13 6 -13 6 -23 14 -23 17 0 4 38 7 84 6 46 0
82 -3 80 -7 -3 -4 5 -12 17 -18 17 -10 20 -9 14 1 -17 27 103 2 187 -40 46
-22 84 -36 86 -32 2 5 13 7 25 5 12 -2 4 5 -18 16 -22 11 -46 20 -52 20 -7 0
-13 4 -13 8 0 5 -18 14 -40 21 -48 14 -52 31 -8 31 45 0 30 9 -23 14 -24 2
-47 4 -50 5 -4 1 -9 10 -12 21 -3 11 -10 20 -17 20 -6 0 -8 -4 -5 -10 3 -5 -3
-10 -14 -10 -14 0 -19 5 -15 15 5 11 2 13 -10 9 -12 -5 -15 -2 -10 10 3 9 1
16 -6 16 -6 0 -8 -4 -5 -10 10 -16 -14 -12 -83 16 -35 14 -66 23 -69 21 -2 -3
6 -8 19 -12 13 -4 35 -16 50 -26 14 -11 38 -19 53 -19 45 0 23 -25 -23 -26
-23 -1 -39 2 -36 7 3 5 -3 6 -12 2 -13 -5 -16 -3 -11 9 3 10 0 19 -9 22 -22 8
-26 7 -19 -4 10 -16 -31 -11 -45 5 -7 8 -21 15 -31 15 -10 0 -20 4 -23 9 -6
10 -106 11 -106 1 0 -3 15 -11 33 -19 19 -7 27 -15 19 -18 -7 -3 -40 11 -73
32 -32 20 -63 34 -67 31 -13 -8 -84 20 -98 39 -7 9 -17 14 -23 11 -5 -4 -12
-2 -15 3 -3 5 5 12 18 15 24 6 86 -20 86 -36 0 -5 14 -8 31 -8 17 0 40 -5 52
-12 12 -7 31 -13 42 -14 18 -3 17 -2 -3 8 -12 6 -21 18 -20 27 2 12 -4 15 -27
14 -23 -2 -36 4 -49 22 -10 14 -26 25 -35 25 -18 1 -71 29 -56 30 6 0 2 7 -8
14 -10 8 -26 12 -36 9 -10 -2 -31 7 -48 21 -17 14 -41 26 -52 26 -12 0 -24 7
-27 15 -4 8 -15 15 -25 15 -23 0 -159 67 -159 78 0 4 -14 13 -30 19 -28 11
-30 10 -25 -8 4 -10 3 -19 -2 -19 -11 0 -104 30 -125 41 -9 5 -31 6 -47 3 -23
-5 -32 -2 -37 10 -5 13 -21 16 -78 16 -39 1 -91 5 -116 11 -25 6 -54 11 -65
13 -34 3 -65 17 -65 27 0 6 -5 7 -11 3 -8 -5 -4 -13 11 -24 20 -15 20 -18 6
-23 -20 -8 -66 19 -66 39 0 8 -5 14 -10 14 -6 0 -10 -8 -8 -17 2 -12 -3 -18
-14 -17 -63 3 -69 5 -78 29 -5 14 -17 25 -27 25 -17 -1 -17 -1 0 -11 17 -10
25 -49 10 -49 -5 0 -21 9 -37 19 -26 18 -27 20 -10 31 16 9 16 11 2 6 -10 -3
-20 0 -24 6 -4 7 -9 7 -14 -1 -8 -15 -60 6 -60 23 0 7 -10 20 -22 31 l-23 19
40 8 c22 4 54 5 70 1 21 -3 27 -2 20 5 -5 6 -45 13 -88 16 l-79 5 7 -27 c4
-15 5 -25 3 -22 -2 3 -16 20 -33 39 -16 19 -25 31 -18 27 6 -3 14 -2 18 3 3 6
-4 15 -15 21 -11 6 -18 15 -15 20 3 5 -7 9 -22 8 -16 0 -55 10 -87 21 -64 23
-121 27 -131 11 -4 -7 6 -9 29 -7 20 2 37 -1 39 -7 2 -6 10 -11 18 -11 26 -2
69 -17 69 -25 0 -10 -56 -4 -110 10 -19 5 -45 11 -58 12 -12 2 -22 7 -22 12 1
5 -3 12 -10 16 -10 6 -16 24 -19 53 -2 17 -19 5 -25 -18 -4 -15 -14 -25 -24
-25 -10 0 -22 -4 -28 -10 -6 -6 -20 -1 -39 15 -26 21 -28 26 -15 35 12 9 11
10 -6 6 -22 -7 -63 28 -50 42 4 4 14 -1 21 -11 9 -12 15 -15 20 -7 4 6 5 12 4
13 -2 1 -17 13 -32 27 -23 20 -30 22 -37 10 -7 -12 -13 -10 -34 10 -15 13 -26
28 -26 34 0 6 5 5 12 -2 14 -14 28 -16 28 -4 0 5 -18 16 -40 26 -22 9 -48 28
-59 42 -10 13 -26 24 -34 24 -34 0 -156 53 -193 83 -33 28 -92 56 -116 57 -15
0 -8 -24 17 -56 14 -18 25 -37 25 -43 0 -11 -68 24 -85 43 -12 14 -112 56
-132 56 -8 0 -27 -6 -41 -14 -32 -17 -180 -56 -202 -53 -8 1 -52 -17 -98 -41
-70 -36 -83 -40 -89 -26 -3 9 -2 19 3 23 5 3 10 17 12 31 2 14 -1 21 -5 15 -4
-5 -17 -15 -28 -21 -11 -6 -21 -21 -23 -33 -2 -11 -10 -21 -18 -21 -8 0 -12
-4 -9 -10 7 -12 -45 -10 -62 3 -6 4 -14 21 -18 36 -6 27 -39 51 -70 51 -8 0
-15 4 -15 10 0 12 -47 59 -54 53 -3 -3 3 -26 13 -52 10 -25 21 -61 25 -80 6
-33 6 -33 -25 -27 -17 3 -42 15 -56 26 -14 11 -34 20 -45 20 -25 0 -55 16 -96
51 -30 26 -40 29 -107 29 -40 0 -86 -5 -102 -12 -15 -6 -32 -10 -38 -9 -5 2
-40 12 -78 22 -42 12 -94 18 -137 17 -53 -1 -74 2 -88 15 -10 9 -27 17 -38 17
-30 1 -54 25 -54 54 0 26 -13 35 -25 16 -8 -13 -16 -12 -40 6 -17 12 -18 16
-5 24 12 7 11 12 -4 29 -20 22 -74 25 -88 6 -5 -6 -8 -3 -8 7 0 9 8 18 18 20
11 3 5 9 -20 18 -24 9 -38 20 -38 31 0 22 -22 37 -28 20 -3 -9 -7 -9 -18 0
-11 9 -18 8 -29 -1 -12 -10 -19 -10 -27 -2 -9 9 -7 12 10 12 12 0 22 5 22 10
0 6 -4 10 -8 10 -5 0 -19 9 -32 20 -13 11 -29 20 -36 20 -7 0 -26 16 -41 35
-33 41 -38 43 -47 13 -6 -23 -7 -23 -21 4 -10 17 -21 25 -30 22 -8 -3 -29 5
-47 19 -18 13 -41 27 -51 30 -9 4 -16 12 -15 19 2 9 -9 13 -31 13 -19 0 -36 6
-39 13 -2 7 -9 12 -16 12 -7 0 -21 9 -31 20 -10 11 -31 20 -47 20 -21 0 -31 6
-35 20 -7 27 -29 25 -37 -2 -6 -23 -7 -23 -22 5 -14 26 -20 29 -60 25 -29 -2
-45 1 -49 9 -6 18 -44 16 -52 -3 -3 -9 -9 -12 -12 -7 -10 13 -49 33 -66 33 -8
0 -15 3 -15 8 0 4 -9 13 -20 20 -17 10 -24 10 -44 -3 -22 -15 -56 -12 -56 5 0
4 -25 8 -55 9 -39 0 -64 6 -84 20 -23 16 -38 19 -83 14 -50 -5 -59 -3 -80 18
-21 21 -35 25 -93 27 -42 1 -72 7 -78 14 -7 10 -10 10 -14 1 -5 -14 -33 -18
-33 -5 0 11 -93 42 -129 42 -17 0 -31 -5 -31 -11 0 -8 -5 -7 -16 2 -13 11 -17
10 -25 -4 -15 -25 -26 -21 -32 13 -5 21 -12 30 -27 30 -11 0 -20 -7 -20 -15 0
-8 -9 -15 -20 -15 -11 0 -20 4 -20 9 0 5 -15 12 -32 16 -18 4 -42 9 -53 11
-15 4 -14 1 5 -10z m160 -42 c0 -8 -5 -12 -10 -9 -6 4 -8 11 -5 16 9 14 15 11
15 -7z m-1200 -314 c0 -5 -7 -7 -15 -4 -8 4 -15 8 -15 10 0 2 7 4 15 4 8 0 15
-4 15 -10z m-95 -30 c-6 -9 -9 -9 -16 1 -10 17 0 34 13 21 6 -6 7 -16 3 -22z
m30 0 c3 -5 1 -10 -4 -10 -6 0 -11 5 -11 10 0 6 2 10 4 10 3 0 8 -4 11 -10z
m-49 -47 c-10 -10 -19 5 -10 18 6 11 8 11 12 0 2 -7 1 -15 -2 -18z m2884 -59
c0 -8 -4 -12 -10 -9 -5 3 -10 10 -10 16 0 5 5 9 10 9 6 0 10 -7 10 -16z
m-2933 -100 c-3 -3 -12 -4 -19 -1 -8 3 -5 6 6 6 11 1 17 -2 13 -5z m-44 -11
c-7 -2 -19 -2 -25 0 -7 3 -2 5 12 5 14 0 19 -2 13 -5z m52 -35 c2 -7 0 -29 -4
-48 l-9 -35 -1 43 c-1 35 -4 42 -21 42 -17 0 -20 -7 -22 -42 -1 -39 -2 -40 -5
-10 -3 19 -2 40 1 48 7 17 55 19 61 2z m3330 -148 c3 -5 15 -10 26 -10 11 0
18 -4 15 -9 -3 -4 -21 -3 -40 3 -19 6 -32 14 -30 18 7 11 22 10 29 -2z m-3415
-31 c0 -11 -4 -17 -10 -14 -5 3 -10 13 -10 21 0 8 5 14 10 14 6 0 10 -9 10
-21z m7 -121 c-2 -13 -4 -3 -4 22 0 25 2 35 4 23 2 -13 2 -33 0 -45z m5258 36
c13 -5 14 -8 3 -15 -19 -13 -28 -11 -28 6 0 17 2 18 25 9z m-2065 -14 c0 -5
-2 -10 -4 -10 -3 0 -8 5 -11 10 -3 6 -1 10 4 10 6 0 11 -4 11 -10z m1920 -3
c42 -14 60 -25 60 -36 0 -8 -188 -7 -197 2 -9 10 16 35 40 40 41 8 62 7 97 -6z
m-203 -13 c-3 -3 -12 -4 -19 -1 -8 3 -5 6 6 6 11 1 17 -2 13 -5z m433 -74 c28
-22 24 -25 -14 -10 -14 5 -26 14 -26 20 0 15 12 12 40 -10z m-100 -5 c14 -16
10 -18 -14 -9 -9 3 -16 10 -16 15 0 14 16 11 30 -6z m-453 -1 c-3 -3 -12 -4
-19 -1 -8 3 -5 6 6 6 11 1 17 -2 13 -5z m-151 -46 c4 -7 3 -8 -5 -4 -6 4 -18
2 -26 -4 -8 -7 -20 -10 -27 -7 -8 3 -3 9 12 15 33 14 38 14 46 0z m830 -19 c4
-8 1 -8 -14 0 -12 6 -24 16 -28 22 -4 8 -1 8 14 0 12 -6 24 -16 28 -22z m67 2
c15 -8 27 -18 27 -23 0 -15 -19 -8 -47 18 -29 27 -26 27 20 5z m-222 -7 c17
-8 28 -18 25 -21 -3 -3 -12 -1 -19 5 -8 7 -16 10 -18 8 -2 -2 -10 2 -17 10
-17 18 -8 18 29 -2z m-1121 -9 c11 -13 8 -15 -13 -15 -26 0 -42 12 -30 24 11
11 30 7 43 -9z m90 5 c0 -5 -4 -10 -10 -10 -5 0 -10 5 -10 10 0 6 5 10 10 10
6 0 10 -4 10 -10z m-413 -6 c-3 -3 -12 -4 -19 -1 -8 3 -5 6 6 6 11 1 17 -2 13
-5z m-937 -30 c0 -7 -27 -34 -34 -34 -3 0 -6 9 -6 20 0 13 7 20 20 20 11 0 20
-3 20 -6z m-180 -64 c0 -5 -4 -10 -10 -10 -5 0 -10 5 -10 10 0 6 5 10 10 10 6
0 10 -4 10 -10z m-120 -20 c0 -5 -2 -10 -4 -10 -3 0 -8 5 -11 10 -3 6 -1 10 4
10 6 0 11 -4 11 -10z m175 -2 c30 -14 32 -24 4 -33 -14 -5 -19 -13 -16 -25 3
-11 -1 -21 -9 -24 -11 -4 -14 6 -14 44 0 56 -1 55 35 38z m113 5 c-10 -2 -18
-11 -18 -19 0 -21 -17 -17 -23 6 -4 17 0 20 26 19 18 -1 24 -3 15 -6z m3190
-106 c6 -5 12 -16 12 -24 0 -10 -4 -11 -19 -3 -11 5 -32 10 -48 10 -15 1 -39
7 -53 15 -24 13 -22 14 35 13 33 0 66 -5 73 -11z m-3558 -7 c0 -5 -18 -10 -40
-10 -22 0 -40 5 -40 10 0 6 18 10 40 10 22 0 40 -4 40 -10z m-40 -110 c0 -5
-4 -10 -10 -10 -5 0 -10 5 -10 10 0 6 5 10 10 10 6 0 10 -4 10 -10z m-70 -20
c-12 -7 -13 -13 -3 -28 14 -23 0 -42 -31 -42 -19 1 -19 2 4 15 l25 15 -22 6
c-13 3 -23 10 -23 15 0 11 31 28 50 29 13 0 13 -1 0 -10z m-199 -113 c-13 -13
-26 -3 -16 12 3 6 11 8 17 5 6 -4 6 -10 -1 -17z m4739 -2 c73 -14 237 -71 260
-91 8 -7 29 -16 45 -20 17 -4 35 -10 40 -13 6 -3 19 -6 29 -6 11 0 21 -6 23
-12 6 -17 -49 -17 -65 -1 -6 6 -15 8 -19 4 -4 -4 -1 -12 7 -17 12 -8 11 -9 -5
-6 -41 10 -80 16 -67 11 6 -3 12 -10 12 -14 0 -5 -18 -3 -40 5 -23 8 -40 10
-40 4 0 -8 -21 -6 -72 8 -32 8 -19 22 16 16 19 -3 36 -1 40 6 4 6 2 11 -3 11
-6 0 -11 7 -11 15 0 8 -6 15 -14 15 -18 0 -116 29 -139 42 -11 5 -22 7 -25 4
-3 -3 0 -6 6 -6 7 0 12 -4 12 -9 0 -5 -15 -7 -32 -6 -18 2 -32 8 -30 14 1 6
-13 11 -32 11 -19 0 -41 6 -48 13 -7 7 -22 17 -33 22 -17 7 -14 10 20 15 41 7
50 7 165 -15z m-222 -11 c2 -1 5 -13 7 -27 4 -21 2 -24 -16 -20 -14 4 -17 9
-10 16 17 17 13 25 -14 25 -30 0 -40 6 -31 21 6 9 37 1 64 -15z m407 -4 c3 -5
-1 -10 -9 -10 -9 0 -16 5 -16 10 0 6 4 10 9 10 6 0 13 -4 16 -10z m-282 -75
c1 -5 -6 -11 -15 -13 -11 -2 -18 3 -18 13 0 17 30 18 33 0z m207 -6 c0 -20
-33 -31 -77 -24 -39 6 -45 9 -32 18 17 13 109 17 109 6z m233 -93 c4 -10 1
-13 -9 -9 -15 6 -19 23 -5 23 5 0 11 -7 14 -14z m-5110 -3 c-13 -2 -33 -2 -45
0 -13 2 -3 4 22 4 25 0 35 -2 23 -4z m4922 -2 c3 -5 1 -12 -4 -15 -12 -8 -41
3 -41 15 0 12 37 12 45 0z m55 -1 c0 -5 -4 -10 -10 -10 -5 0 -10 5 -10 10 0 6
5 10 10 10 6 0 10 -4 10 -10z m195 -6 c-9 -10 -22 -13 -33 -9 -15 7 -15 8 3
15 35 15 48 12 30 -6z m132 -10 c-7 -7 -37 7 -37 17 0 6 9 5 21 -1 11 -7 19
-14 16 -16z m-42 -4 c16 -18 16 -20 2 -20 -22 0 -67 21 -67 32 0 16 47 8 65
-12z m-5165 -4 c0 -2 -18 -6 -40 -8 -22 -2 -40 0 -40 4 0 5 18 8 40 8 22 0 40
-2 40 -4z m4913 -13 c-7 -2 -19 -2 -25 0 -7 3 -2 5 12 5 14 0 19 -2 13 -5z
m67 -13 c0 -5 -4 -10 -9 -10 -6 0 -13 5 -16 10 -3 6 1 10 9 10 9 0 16 -4 16
-10z m63 -20 c5 -4 -3 -5 -17 -3 -15 3 -29 10 -32 15 -7 11 36 1 49 -12z
m-5153 -14 c0 -11 -19 -15 -25 -6 -3 5 1 10 9 10 9 0 16 -2 16 -4z m5272 -16
c28 0 68 -23 68 -39 0 -13 -69 -9 -74 4 -2 7 -18 16 -34 20 -17 3 -33 13 -36
20 -4 11 0 12 20 5 14 -6 39 -10 56 -10z m-107 0 c3 -5 -1 -10 -9 -10 -9 0
-16 5 -16 10 0 6 4 10 9 10 6 0 13 -4 16 -10z m-5175 -51 c0 -5 -4 -9 -10 -9
-5 0 -10 7 -10 16 0 8 5 12 10 9 6 -3 10 -10 10 -16z m5440 -15 c0 -2 -7 -4
-15 -4 -8 0 -15 4 -15 10 0 5 7 7 15 4 8 -4 15 -8 15 -10z m-5547 -1 c-7 -2
-13 -17 -13 -33 0 -16 6 -31 13 -33 7 -3 5 -6 -5 -6 -16 -1 -48 45 -48 69 0 5
15 10 33 9 17 0 26 -3 20 -6z m79 -38 c3 -48 2 -50 -22 -35 -10 6 -11 10 -2
10 7 0 12 13 12 29 0 16 -6 32 -12 34 -8 4 -7 6 3 6 13 1 18 -10 21 -44z
m5971 -32 c-7 -2 -19 -2 -25 0 -7 3 -2 5 12 5 14 0 19 -2 13 -5z m-388 -24
c15 -15 -17 -10 -45 7 l-25 15 30 -6 c17 -4 34 -11 40 -16z m82 -25 c-3 -3
-12 -4 -19 -1 -8 3 -5 6 6 6 11 1 17 -2 13 -5z m-5737 -74 c0 -5 -4 -10 -10
-10 -5 0 -10 5 -10 10 0 6 5 10 10 10 6 0 10 -4 10 -10z m6200 -40 c0 -5 -7
-10 -16 -10 -8 0 -12 5 -9 10 3 6 10 10 16 10 5 0 9 -4 9 -10z m-305 -190 c3
-5 -1 -10 -9 -10 -8 0 -18 5 -21 10 -3 6 1 10 9 10 8 0 18 -4 21 -10z m532
-137 c29 -13 36 -14 43 -3 7 11 11 11 24 1 18 -15 12 -33 -8 -25 -10 4 -12 -2
-8 -23 5 -28 5 -28 -17 -9 -11 11 -21 25 -21 33 0 9 -6 12 -18 9 -11 -4 -22 2
-30 14 -15 24 -10 25 35 3z m124 -55 c2 -15 -2 -42 -6 -46 -1 -1 -10 0 -19 4
-24 9 -21 54 4 54 11 0 21 -6 21 -12z m7 -86 c-5 -25 -31 -25 -46 -1 -11 18
-11 23 -1 30 18 11 51 -9 47 -29z m79 -83 c17 -21 27 -69 14 -69 -6 0 -11 5
-11 11 0 5 -12 14 -27 20 -16 5 -36 21 -46 34 -14 20 -15 28 -6 49 17 38 42
38 54 0 6 -17 15 -37 22 -45z m286 -141 c12 -7 24 -14 26 -15 7 -4 -21 -33
-33 -33 -6 0 -4 5 4 10 12 8 11 10 -7 10 -16 0 -23 6 -23 20 0 23 3 24 33 8z
m-63 -68 c0 -5 -4 -10 -10 -10 -5 0 -10 5 -10 10 0 6 5 10 10 10 6 0 10 -4 10
-10z m175 -71 c12 -12 28 -11 20 0 -3 5 8 3 25 -5 17 -9 30 -23 30 -34 0 -9 6
-23 14 -29 33 -28 55 -91 61 -173 3 -45 3 -90 -1 -100 -5 -16 -9 -13 -29 16
-13 19 -32 54 -43 78 -21 47 -85 137 -126 179 -42 43 -32 68 11 27 l23 -21 0
22 c0 14 -9 25 -25 31 -34 13 -32 32 3 24 15 -4 31 -11 37 -15z m-75 -89 c0
-5 -4 -10 -10 -10 -5 0 -10 5 -10 10 0 6 5 10 10 10 6 0 10 -4 10 -10z m250
-470 c0 -5 -2 -10 -4 -10 -3 0 -8 5 -11 10 -3 6 -1 10 4 10 6 0 11 -4 11 -10z
m20 -431 c0 -5 -4 -9 -10 -9 -5 0 -10 7 -10 16 0 8 5 12 10 9 6 -3 10 -10 10
-16z m-2290 -1650 c0 -5 5 -7 10 -4 6 3 10 -1 10 -9 0 -9 -8 -16 -17 -16 -12
0 -14 -3 -7 -10 7 -7 19 -7 35 -1 33 12 62 -4 54 -30 -5 -15 -2 -19 15 -19 16
0 20 -4 16 -18 -5 -13 1 -23 16 -31 13 -6 15 -9 5 -6 -19 5 -100 -43 -92 -55
3 -4 -9 -10 -26 -12 -20 -3 -33 0 -39 11 -8 14 -9 14 -9 1 0 -23 22 -48 54
-60 29 -11 48 -3 101 43 18 16 21 23 12 30 -10 7 -9 8 2 4 17 -5 54 20 63 43
4 12 6 11 6 -2 1 -20 16 -24 26 -8 4 6 11 8 16 4 5 -3 7 -10 4 -15 -12 -18 6
-31 23 -16 21 18 62 28 62 16 0 -5 -7 -12 -15 -15 -8 -4 -15 -10 -15 -16 0 -5
6 -6 12 -1 13 8 59 6 92 -4 17 -5 18 -6 3 -15 -29 -16 -19 -26 17 -18 18 4 39
10 45 14 6 4 22 -1 36 -10 20 -13 29 -14 38 -5 9 9 9 14 0 19 -7 5 -9 13 -4
21 12 19 51 4 51 -19 0 -10 4 -21 9 -25 5 -3 8 -26 6 -51 -2 -44 3 -62 35
-111 14 -22 14 -22 32 15 22 46 23 79 3 98 -22 23 -19 65 5 71 11 3 17 9 14
14 -6 10 8 17 41 22 11 2 31 9 45 16 17 10 25 11 28 2 2 -6 8 -9 13 -5 13 8
11 -30 -2 -43 -7 -7 -8 -17 -1 -29 6 -11 8 -40 5 -64 -3 -25 -1 -61 4 -80 6
-19 6 -44 2 -55 -7 -18 -8 -18 -9 5 -2 18 -4 20 -7 7 -3 -10 0 -24 7 -32 8
-10 8 -19 -2 -35 -9 -14 -10 -23 -3 -28 6 -4 11 -22 11 -40 0 -26 -3 -31 -18
-26 -10 3 -18 1 -18 -4 0 -5 9 -12 20 -15 14 -4 18 -10 13 -23 -4 -11 0 -22
12 -30 17 -13 17 -14 2 -14 -18 0 -23 -15 -8 -25 14 -8 6 -78 -9 -83 -8 -3
-10 0 -6 7 4 6 0 14 -9 17 -12 5 -14 14 -9 37 4 19 3 27 -4 23 -6 -3 -13 -2
-17 4 -13 21 -25 9 -25 -26 0 -33 -2 -35 -17 -23 -15 13 -16 12 -8 -6 4 -11 8
-35 7 -53 -1 -20 3 -35 12 -38 8 -3 12 -12 9 -21 -4 -10 3 -23 18 -34 21 -16
22 -20 9 -30 -11 -8 -12 -12 -2 -16 6 -2 12 -19 12 -37 0 -18 5 -37 12 -44 8
-8 8 -15 -2 -27 -15 -18 -5 -30 35 -41 17 -4 20 -11 17 -40 -4 -30 -6 -33 -20
-22 -13 11 -15 10 -10 -9 4 -13 2 -26 -3 -29 -17 -10 -10 -32 10 -27 10 3 22
0 25 -6 4 -6 22 -11 40 -11 25 0 35 -5 39 -20 4 -14 10 -18 22 -14 14 6 16 3
11 -14 -5 -15 -2 -22 14 -27 21 -7 28 -25 10 -25 -6 0 -9 -19 -6 -47 2 -27 -1
-54 -7 -62 -9 -11 -7 -17 11 -29 27 -18 28 -32 4 -63 -11 -15 -19 -44 -21 -74
-1 -27 -6 -77 -11 -110 -6 -33 -10 -63 -10 -67 0 -4 -8 -14 -17 -23 -14 -14
-14 -20 -4 -37 9 -15 10 -27 3 -42 -6 -11 -13 -37 -17 -57 -3 -21 -12 -42 -20
-49 -9 -7 -13 -21 -9 -35 3 -12 0 -41 -6 -64 -8 -32 -8 -56 1 -97 14 -61 10
-71 -19 -53 -28 18 -56 4 -47 -24 3 -12 11 -40 17 -62 6 -22 20 -48 32 -57
l21 -17 -23 -30 c-12 -17 -26 -47 -30 -68 -6 -29 -13 -37 -27 -35 -14 3 -16
-1 -10 -15 15 -37 23 -72 18 -77 -3 -3 -7 -26 -9 -51 -3 -47 7 -58 25 -27 9
14 10 12 11 -13 0 -16 3 -41 7 -54 l6 -25 -30 22 -30 22 0 -26 c0 -17 6 -28
17 -31 15 -4 17 -15 15 -76 -6 -153 -27 -282 -53 -324 -7 -12 -11 -31 -7 -42
3 -11 -2 -32 -14 -51 -11 -18 -17 -40 -13 -48 4 -11 1 -14 -11 -9 -22 8 -40
-26 -32 -61 4 -20 -1 -34 -19 -53 -14 -15 -28 -43 -31 -63 -4 -20 -11 -36 -15
-36 -5 0 -11 -10 -13 -22 -2 -13 -3 -8 -1 10 2 21 -1 30 -8 26 -16 -10 -38
-71 -32 -88 3 -9 1 -16 -4 -16 -6 0 -12 -14 -14 -32 -4 -37 -28 -51 -28 -16
l-1 23 -14 -25 c-7 -14 -10 -29 -5 -35 5 -6 3 -21 -5 -34 l-12 -24 -12 21
c-16 30 -25 28 -43 -11 -13 -27 -14 -42 -6 -73 12 -42 4 -114 -12 -114 -6 0
-10 8 -10 18 -1 23 -32 -16 -61 -78 -12 -25 -24 -39 -26 -32 -7 20 -25 14 -55
-20 -17 -19 -26 -38 -23 -49 4 -12 -1 -20 -15 -24 -23 -7 -43 -47 -34 -69 3
-8 1 -23 -5 -33 -9 -16 -11 -14 -12 12 -1 22 -5 14 -18 -33 -9 -35 -19 -60
-24 -56 -4 4 -8 -1 -8 -12 -2 -25 -2 -25 7 -58 6 -26 5 -28 -15 -21 -15 5 -21
2 -21 -9 0 -9 -4 -16 -9 -16 -5 0 -4 13 2 30 10 26 8 32 -11 50 -19 18 -23 19
-28 6 -3 -9 -3 -24 0 -33 6 -15 8 -15 16 -3 6 8 10 10 10 4 0 -6 -13 -23 -30
-37 -16 -15 -30 -35 -30 -45 0 -19 -38 -67 -47 -59 -2 3 3 19 11 36 15 27 6
56 -9 31 -4 -6 -15 -8 -25 -5 -22 7 -33 -7 -24 -29 5 -13 9 -14 20 -5 9 8 14
8 14 1 0 -6 -8 -17 -18 -24 -11 -7 -23 -26 -29 -43 -6 -16 -16 -29 -22 -27 -7
1 -23 -10 -36 -24 -14 -15 -25 -24 -25 -20 0 9 -61 -33 -77 -54 -10 -13 -12
-10 -13 18 0 35 -14 43 -24 15 -11 -31 -33 -63 -38 -58 -3 3 -3 26 0 50 3 27
1 45 -6 45 -12 0 -22 30 -28 84 -6 54 -14 58 -14 8 0 -31 -4 -42 -15 -42 -8 0
-15 -8 -15 -17 0 -15 2 -16 10 -3 5 8 10 10 10 5 0 -12 -20 -35 -31 -35 -4 0
-9 10 -12 23 -9 38 -49 141 -63 162 -18 26 -17 7 1 -25 17 -29 20 -70 5 -70
-5 0 -10 5 -10 10 0 6 -4 10 -8 10 -4 0 -6 -16 -4 -36 6 -53 -13 -40 -47 31
-26 52 -29 55 -24 25 l5 -35 -37 38 c-37 37 -73 53 -41 19 15 -18 15 -20 -2
-36 -17 -15 -20 -15 -32 -1 -7 8 -17 15 -22 15 -15 0 -38 27 -38 44 0 8 -4 18
-10 21 -14 9 -12 -3 10 -61 19 -52 19 -52 0 -47 -29 8 -25 -18 5 -41 14 -10
32 -32 40 -49 18 -37 18 -38 0 -31 -10 4 -15 0 -15 -11 0 -28 -19 -6 -26 30
-3 18 -12 36 -20 39 -8 3 -14 12 -14 21 0 8 -5 15 -11 15 -6 0 -9 -9 -6 -19 3
-13 0 -18 -8 -15 -7 3 -15 18 -19 35 -3 16 -11 29 -17 29 -8 0 -8 -4 -2 -12
14 -17 34 -108 31 -133 -2 -11 -8 -27 -13 -35 -7 -12 -10 -10 -15 9 -9 40 -27
36 -22 -5 3 -26 1 -35 -7 -30 -16 11 -13 -10 4 -24 8 -7 12 -16 9 -21 -8 -14
-24 -11 -24 5 0 8 -5 16 -11 18 -8 3 -9 17 -3 48 10 51 7 103 -6 95 -5 -3 -7
10 -4 30 2 19 6 51 8 70 6 42 -10 38 -19 -5 -4 -16 -11 -32 -16 -35 -5 -4 -9
-19 -9 -36 0 -16 -5 -29 -11 -29 -13 0 -1 -63 12 -68 13 -5 11 -70 -3 -78 -7
-5 -9 -2 -5 8 4 12 1 14 -15 10 -19 -5 -20 -2 -15 39 4 24 9 73 13 109 3 36 8
68 11 73 7 12 11 57 5 57 -3 0 -11 -8 -18 -17 -12 -17 -13 -17 -19 0 -10 25
-25 21 -23 -7 1 -14 6 -22 12 -19 5 4 6 -4 3 -18 -4 -13 -7 -35 -8 -49 -1 -20
-4 -17 -14 15 l-12 40 -7 -42 c-8 -46 -19 -54 -35 -25 -9 14 -10 14 -11 2 0
-9 4 -20 8 -25 5 -6 6 -21 1 -35 -7 -24 -7 -24 -8 -2 -1 12 -4 22 -9 22 -4 0
-6 -18 -4 -40 3 -25 0 -40 -7 -40 -6 0 -11 -7 -11 -16 0 -13 -3 -14 -14 -5
-16 13 -11 95 10 159 16 50 18 92 4 92 -5 0 -11 -17 -11 -37 -1 -21 -3 -30 -6
-21 -4 16 -6 16 -24 -1 -19 -17 -23 -35 -18 -71 1 -8 1 -28 0 -45 l-3 -30 -11
35 -10 35 -7 -30 c-6 -22 -8 -24 -9 -9 0 12 -8 24 -16 28 -12 4 -14 -2 -11
-37 3 -23 2 -36 -1 -29 -10 26 -24 11 -18 -21 4 -18 1 -46 -5 -62 -11 -27 -13
-28 -19 -11 -7 17 -11 14 -31 -22 -13 -23 -30 -42 -37 -42 -10 0 -11 5 -3 19
14 26 13 38 -2 23 -17 -17 -29 -15 -22 3 4 8 11 15 18 15 15 0 50 65 43 82 -4
9 -6 7 -6 -4 -1 -10 -10 -27 -20 -37 -19 -19 -19 -18 -26 13 -6 29 -7 29 -15
10 -13 -33 -32 -41 -24 -10 6 25 5 25 -28 15 -18 -6 -39 -11 -46 -12 -7 0 -11
-6 -8 -14 3 -7 -1 -13 -9 -13 -8 0 -15 -4 -15 -10 0 -5 -4 -10 -8 -10 -5 0 -7
15 -5 33 3 27 2 29 -6 11 -7 -16 -16 -20 -35 -17 -14 3 -26 9 -26 14 0 14 -17
10 -23 -5 -4 -10 -1 -13 9 -9 9 3 14 -1 14 -12 0 -9 -4 -13 -10 -10 -5 3 -10
0 -10 -7 -1 -8 -6 -6 -15 6 -14 19 -15 17 -16 -20 0 -29 -2 -34 -8 -19 -8 19
-8 19 -20 -3 -15 -28 -37 -24 -33 6 5 31 -15 27 -21 -4 -2 -14 1 -31 9 -39 11
-11 11 -14 -1 -19 -9 -3 -15 0 -15 9 0 8 -4 15 -10 15 -5 0 -10 -4 -10 -10 0
-5 -7 -10 -15 -10 -18 0 -19 12 -3 28 9 9 9 12 -1 12 -10 0 -12 12 -7 51 8 58
-8 60 -18 3 -5 -25 -11 -34 -22 -30 -8 3 -14 -1 -14 -10 0 -8 -5 -25 -11 -36
-9 -17 -13 -18 -20 -7 -5 8 -9 28 -9 44 0 17 -7 39 -15 49 -8 11 -15 29 -15
40 0 20 -2 20 -21 -4 -16 -20 -19 -34 -14 -76 4 -42 2 -53 -11 -58 -14 -5 -15
-1 -10 29 8 38 3 43 -21 20 -8 -8 -19 -13 -24 -10 -5 4 -9 -1 -9 -10 0 -9 -4
-13 -10 -10 -5 3 -10 -1 -10 -9 0 -36 -20 -22 -39 26 -15 41 -20 47 -22 28 -1
-14 -1 -29 0 -33 2 -13 -58 35 -65 52 -5 13 -9 9 -19 -14 -12 -26 -14 -28 -21
-12 -4 11 0 33 10 53 20 43 20 54 1 54 -20 0 -19 9 3 33 13 15 14 21 4 24 -7
3 -19 11 -26 19 -8 8 -19 14 -24 14 -23 0 -48 140 -34 192 6 24 18 23 25 -4 5
-17 9 -19 20 -9 8 6 21 10 28 9 7 -2 15 9 18 26 3 17 10 29 16 27 5 -1 11 2
13 8 2 6 -6 10 -20 9 -25 -3 -24 -6 -11 76 6 36 4 39 -13 32 -34 -13 -39 -11
-36 13 2 20 0 22 -12 11 -9 -6 -20 -9 -26 -5 -6 3 -10 -3 -10 -14 0 -22 -14
-28 -25 -10 -4 5 0 18 8 27 14 15 13 20 -7 43 -13 15 -36 33 -52 40 -25 13
-29 19 -26 52 3 31 0 37 -16 37 -12 0 -23 -9 -27 -22 l-8 -23 -4 23 c-3 15
-11 22 -29 22 -13 0 -24 5 -24 10 0 6 -4 10 -10 10 -14 0 -6 -76 10 -95 10
-13 9 -15 -9 -15 -11 0 -21 -4 -21 -10 0 -5 -4 -10 -10 -10 -5 0 -10 7 -10 15
0 8 -5 15 -11 15 -7 0 -9 -12 -7 -30 4 -25 2 -28 -7 -18 -7 7 -15 30 -18 51
-5 32 -4 37 7 27 18 -14 56 32 56 67 0 13 7 26 16 30 15 5 15 7 0 15 -17 10
-21 67 -7 103 7 18 8 17 14 -7 9 -33 45 -47 62 -24 7 9 18 16 25 16 7 0 10 6
7 14 -3 8 1 17 9 20 10 4 16 -3 20 -23 4 -20 14 -31 31 -36 16 -4 23 -11 20
-20 -3 -7 0 -16 8 -19 8 -3 17 -21 20 -40 4 -19 12 -39 19 -44 20 -17 58 -25
65 -14 4 6 19 13 34 16 14 2 31 7 37 11 6 4 10 -7 10 -27 0 -18 4 -44 8 -58 5
-19 8 -12 12 35 5 58 6 60 33 58 15 -1 27 3 27 10 0 7 8 3 16 -8 11 -14 18
-16 21 -7 3 6 9 12 14 12 6 0 8 -4 5 -8 -2 -4 11 -6 30 -4 30 4 34 2 34 -19
l0 -24 13 24 c6 13 17 24 22 23 6 0 16 4 23 10 9 8 11 7 6 -6 -5 -12 0 -16 19
-16 14 0 29 5 32 10 4 6 12 4 21 -5 10 -9 25 -13 39 -9 12 3 26 1 29 -5 24
-38 31 22 15 114 -3 12 1 19 8 18 7 -2 10 4 7 12 -4 8 -3 22 0 31 5 12 18 3
62 -40 52 -51 74 -66 74 -50 0 4 -8 13 -17 21 -23 18 -10 14 55 -17 31 -15 50
-30 47 -37 -2 -7 0 -13 5 -13 6 0 10 5 10 10 0 6 8 10 18 11 13 0 12 3 -5 11
-13 6 -23 14 -23 18 0 4 -13 10 -30 14 -16 3 -30 11 -30 17 0 7 7 8 18 4 9 -4
37 -9 62 -10 25 -1 32 0 15 2 -33 5 -59 23 -34 24 7 0 3 5 -10 10 -14 5 -21
15 -18 23 8 20 -15 66 -32 63 -8 -1 -18 11 -24 28 -10 31 -50 75 -68 75 -12 0
-12 -4 6 -45 14 -34 13 -35 -5 -25 -11 6 -20 18 -20 26 0 8 -4 12 -10 9 -5 -3
-15 7 -22 22 -17 39 -16 38 -38 18 -11 -10 -20 -15 -20 -10 0 4 -7 2 -15 -5
-13 -11 -15 -8 -15 21 0 23 -3 30 -9 20 -5 -7 -14 -10 -21 -6 -7 4 -13 -1 -17
-14 -4 -14 -11 -20 -22 -16 -11 3 -22 -5 -33 -23 l-17 -27 1 43 c1 23 -4 48
-12 55 -10 10 -11 6 -8 -20 3 -23 0 -33 -9 -33 -7 0 -13 7 -13 15 0 8 -3 15
-7 16 -5 0 -18 2 -30 5 -24 4 -127 -40 -153 -65 -13 -13 -16 -11 -24 12 -10
28 -26 37 -26 14 0 -7 -7 -22 -16 -33 -15 -18 -15 -18 -9 4 5 16 2 22 -9 22
-10 0 -16 -9 -17 -22 -1 -18 -3 -17 -8 6 -8 41 -30 45 -37 8 -5 -24 -9 -28
-19 -19 -10 9 -10 16 1 33 13 19 12 22 -11 32 -31 14 -72 16 -79 3 -7 -11 13
-28 38 -32 11 -2 21 -11 24 -19 4 -12 2 -13 -9 -2 -7 6 -33 12 -58 12 -42 0
-43 1 -28 18 15 17 15 19 -6 37 -12 11 -25 19 -29 17 -19 -5 -5 15 23 35 26
17 32 29 33 64 4 65 32 83 125 77 82 -6 121 7 148 48 17 27 33 31 33 9 0 -23
17 -18 23 7 4 12 9 19 13 15 4 -4 13 1 20 11 13 16 13 16 14 -1 0 -10 5 -15
10 -12 6 4 8 10 5 15 -3 5 -1 11 5 15 5 3 10 20 10 38 0 51 19 18 24 -41 5
-70 13 -75 28 -18 14 54 35 56 30 3 -2 -21 1 -37 6 -37 10 0 22 47 22 86 0 13
5 24 10 24 6 0 10 10 10 22 0 17 3 19 12 10 16 -16 41 -16 32 1 -6 9 -5 9 7 0
21 -17 80 -19 117 -4 25 11 35 11 47 1 8 -7 12 -16 9 -21 -2 -5 2 -21 10 -37
13 -26 19 -28 62 -26 53 3 88 -11 80 -31 -6 -16 29 -26 43 -12 7 7 15 6 25 -2
12 -10 20 -9 41 5 21 14 30 15 51 5 21 -9 30 -8 53 8 17 13 32 17 41 11 9 -6
18 -3 26 8 6 9 38 22 70 29 33 7 78 18 102 23 23 5 75 23 115 40 39 16 77 30
83 30 6 0 21 9 34 20 13 11 30 20 40 20 9 0 21 5 28 12 14 14 91 20 93 7 1 -5
2 -13 3 -19 0 -5 18 -19 40 -31 l38 -20 27 28 c14 16 38 37 54 46 15 10 27 24
27 31 0 8 6 16 13 19 7 2 -5 21 -32 47 -27 26 -40 45 -33 48 7 2 19 -1 26 -8
9 -7 16 -7 20 -1 3 5 0 11 -6 14 -7 3 -3 4 10 4 12 -1 22 -5 22 -9 0 -4 7 -8
15 -8 9 0 29 -14 45 -30 20 -21 30 -26 30 -15 0 8 5 15 10 15 6 0 10 -4 10
-10 0 -5 7 -10 16 -10 9 0 12 -5 8 -12 -6 -10 -3 -9 9 0 12 11 14 19 6 39 -8
21 -6 26 11 30 14 4 17 10 11 22 -13 24 -3 45 15 30 11 -9 14 -8 14 5 0 9 -7
19 -16 23 -11 4 -12 8 -4 13 10 6 8 19 -5 53 -9 25 -14 50 -10 56 3 6 1 11 -6
11 -7 0 -10 2 -7 6 3 3 -15 25 -41 49 -48 46 -72 53 -31 10 28 -30 9 -34 -20
-5 -11 11 -26 20 -32 20 -9 0 -8 3 2 10 16 10 8 23 -18 26 -43 6 -141 35 -207
60 -18 7 -18 6 -5 -7 18 -19 93 -49 120 -49 11 0 20 -6 20 -14 0 -11 -8 -12
-42 -4 -24 5 -53 16 -65 24 -26 16 -37 18 -28 4 3 -5 1 -10 -4 -10 -6 0 -11 5
-11 11 0 7 -11 8 -30 4 -17 -4 -36 -2 -43 3 -7 5 -22 13 -34 16 -19 6 -22 4
-16 -10 5 -13 3 -16 -10 -11 -9 3 -17 2 -17 -2 0 -5 7 -12 16 -15 9 -4 15 -9
12 -11 -5 -6 -68 24 -68 32 0 3 7 2 16 -1 14 -6 15 -4 4 9 -12 15 -14 15 -23
0 -8 -15 -13 -13 -43 16 -37 36 -45 29 -14 -11 28 -36 25 -48 -5 -20 -14 13
-32 25 -40 26 -7 1 -31 15 -52 31 -38 28 -35 18 11 -34 11 -13 15 -23 9 -23
-6 0 -16 6 -23 14 -17 22 -38 9 -32 -20 6 -34 -5 -30 -21 9 -8 17 -25 41 -37
52 l-23 20 16 -25 c12 -19 14 -33 8 -55 -9 -28 -11 -29 -15 -7 -1 10 -73 82
-81 82 -11 0 -4 -19 12 -35 9 -10 17 -25 18 -35 1 -10 8 -26 16 -36 13 -16 12
-16 -8 -5 -13 6 -26 24 -29 39 -4 15 -10 32 -14 37 -4 6 -10 24 -14 40 -9 37
-33 75 -47 75 -6 0 -2 -16 10 -35 15 -26 18 -41 11 -58 -8 -20 -9 -21 -9 -2
-1 22 -53 85 -70 85 -6 0 -11 7 -11 16 0 11 -5 14 -16 10 -9 -3 -20 -6 -25 -6
-6 0 -6 -8 1 -20 8 -15 6 -21 -10 -30 -17 -9 -22 -7 -30 15 -6 15 -8 31 -4 36
3 5 -1 9 -8 9 -10 0 -10 2 1 9 8 5 9 11 3 15 -12 7 -26 -29 -17 -43 3 -5 1
-12 -4 -15 -5 -4 -15 10 -21 29 -6 19 -13 35 -15 35 -15 0 -34 -14 -29 -21 3
-5 10 -7 15 -4 9 6 32 -41 27 -56 -6 -16 -26 7 -55 60 -36 67 -54 77 -46 25 4
-25 3 -35 -5 -30 -6 3 -13 2 -17 -4 -12 -19 -26 -10 -20 11 5 14 3 19 -3 15
-13 -8 -25 46 -17 76 4 16 3 19 -3 9 -8 -10 -13 -8 -26 10 -16 23 -16 23 -12
-21 2 -25 2 -36 -1 -25 -9 44 -12 47 -28 31 -8 -8 -15 -22 -15 -31 0 -21 -19
-9 -30 19 -8 20 -9 19 -9 -6 -1 -27 -21 -51 -21 -25 0 24 -31 30 -37 7 -6 -24
-23 -16 -23 11 0 10 -4 19 -9 19 -5 0 -16 3 -25 6 -10 4 -16 1 -16 -10 0 -9
-6 -13 -13 -10 -17 6 -102 -67 -88 -76 6 -3 14 -40 17 -81 3 -40 8 -76 9 -79
2 -3 0 -12 -5 -20 -5 -8 -1 -27 11 -49 19 -36 28 -91 10 -62 -6 10 -10 10 -16
1 -4 -6 1 -20 10 -30 16 -18 16 -20 1 -26 -11 -4 -14 -13 -10 -30 5 -20 2 -24
-15 -24 -14 0 -21 -6 -21 -20 0 -11 7 -20 15 -20 8 0 15 5 15 10 0 6 15 10 33
10 37 0 83 22 80 38 -2 6 10 9 29 7 21 -3 35 1 44 13 12 16 13 15 14 -5 0 -16
4 -21 15 -17 8 4 15 1 15 -6 0 -9 3 -10 14 -1 16 14 32 -2 38 -38 l3 -24 33
27 c20 17 32 23 32 14 0 -7 12 11 27 40 26 49 28 51 37 30 5 -13 8 -27 7 -32
-1 -5 4 -13 11 -17 10 -7 9 -9 -4 -9 -10 0 -18 -3 -18 -6 0 -10 28 -34 39 -34
6 0 11 -11 11 -25 0 -14 5 -25 10 -25 6 0 10 5 10 10 0 6 4 10 9 10 5 0 7 -9
4 -20 -3 -11 0 -20 6 -20 6 0 11 6 11 13 0 20 27 53 36 44 5 -4 2 -12 -6 -17
-21 -13 -5 -23 24 -16 15 4 28 17 34 36 6 16 15 30 20 30 12 0 24 -28 14 -32
-5 -2 0 -11 10 -20 17 -17 18 -17 18 5 0 18 2 19 10 7 17 -26 11 -66 -14 -89
-20 -19 -30 -21 -62 -15 -22 4 -50 8 -64 8 -14 1 -24 6 -22 14 3 15 -14 16
-23 1 -11 -16 -206 3 -267 26 -11 4 -18 2 -18 -5 0 -7 -8 -9 -20 -5 -19 6
-130 -23 -130 -34 0 -3 -22 -7 -48 -8 -41 -2 -49 1 -57 20 -6 14 -18 22 -33
21 -12 0 -22 3 -22 6 0 4 -10 5 -23 3 -14 -3 -29 2 -36 11 -8 9 -24 16 -38 16
-13 0 -26 6 -29 14 -4 11 -11 12 -34 3 -22 -8 -32 -8 -44 2 -23 20 -20 29 17
45 27 12 29 14 10 15 -30 1 -30 21 0 21 15 0 30 12 47 40 14 22 29 40 35 40 6
0 16 9 23 21 12 19 26 21 22 4 -1 -8 30 -38 35 -34 2 2 6 18 10 34 5 22 4 26
-4 15 -9 -12 -11 -12 -17 3 -3 9 -10 14 -15 11 -14 -8 -11 -1 15 47 13 24 27
54 30 66 6 20 5 21 -18 10 -16 -7 -26 -20 -26 -33 0 -22 -29 -68 -30 -46 0 21
-16 13 -30 -15 -21 -45 -25 -7 -4 40 23 54 23 54 35 37 9 -12 10 -12 5 2 -4
13 3 22 23 33 16 8 32 11 36 7 4 -4 4 4 0 18 -4 14 -14 30 -22 37 -13 10 -14
15 -3 28 15 17 7 19 -21 5 -22 -12 -26 2 -5 19 8 6 16 23 19 36 3 20 2 23 -9
14 -11 -9 -14 -8 -14 2 0 11 -2 11 -9 0 -6 -10 -8 0 -5 30 3 24 2 40 -3 34
-10 -12 -43 -16 -43 -5 0 4 7 13 15 20 8 7 15 20 15 29 0 9 13 22 30 28 17 6
30 8 30 3 0 -5 -5 -10 -12 -12 -12 -4 -3 -28 12 -28 5 0 12 9 15 20 5 15 15
20 39 20 41 0 126 57 105 70 -7 5 -45 7 -83 5 -74 -3 -97 2 -75 16 10 6 8 9
-9 9 -33 0 -162 134 -155 161 4 13 -2 21 -19 28 -14 5 -33 26 -42 46 -11 22
-23 34 -31 32 -19 -8 -37 14 -24 29 7 9 7 19 0 32 -7 14 -6 25 5 40 8 12 12
22 9 22 -3 0 -1 9 5 20 6 11 15 20 20 20 5 0 33 24 62 53 29 29 68 59 86 66
18 8 31 16 28 18 -12 12 41 47 71 47 18 1 33 4 33 9 0 4 9 7 20 7 11 0 24 8
27 18 4 9 14 23 22 29 14 11 13 13 -7 19 -25 7 -25 29 0 29 18 0 48 23 48 36
0 5 -12 9 -27 10 -35 1 -21 6 40 14 38 5 47 10 47 26 0 17 -6 19 -75 15 -49
-3 -75 -1 -75 6 0 5 7 8 15 5 8 -4 17 -2 20 4 4 5 9 7 13 5 4 -2 8 6 8 19 1
14 -3 22 -10 19 -6 -2 -18 0 -26 5 -12 8 -12 13 4 30 17 19 16 20 -21 45 -21
14 -43 26 -50 26 -7 0 -13 5 -13 10 0 6 10 8 23 5 20 -5 22 -2 24 35 2 31 -2
42 -14 47 -32 12 -88 76 -85 96 2 11 -2 23 -8 27 -20 12 10 60 60 97 25 18 50
38 57 43 7 6 15 10 18 10 13 0 43 39 33 42 -7 3 -8 10 -4 17 7 11 10 11 17 0
8 -12 11 -11 20 1 8 11 12 12 16 3 2 -7 9 -13 14 -13 5 0 3 11 -3 25 -14 31
-4 43 22 27 11 -7 28 -12 37 -11 12 0 8 4 -9 11 -16 5 -28 14 -28 19 0 6 -4 7
-10 4 -16 -10 -12 2 7 21 16 15 16 17 -2 30 -18 13 -17 14 8 14 39 0 24 30
-17 31 -23 1 -25 3 -8 6 12 2 22 9 22 14 0 5 17 9 38 10 l37 1 -42 10 c-24 5
-43 14 -43 19 0 6 3 8 8 6 4 -3 18 0 32 6 l25 10 -25 7 -25 8 25 1 c16 1 29
10 37 27 l12 25 -33 -19 c-19 -11 -49 -23 -67 -26 -31 -5 -30 -4 14 16 26 13
47 27 47 32 0 4 -6 6 -12 3 -7 -2 -24 -7 -38 -11 l-25 -7 24 20 23 21 -41 0
c-63 0 -49 16 22 25 36 5 52 10 37 12 -14 2 -40 11 -59 20 -30 14 -32 17 -16
25 10 6 47 8 84 5 l66 -5 -35 18 -35 18 32 -2 c19 -1 51 -16 79 -36 107 -79
260 -170 287 -170 6 0 -15 16 -48 36 -91 54 -107 65 -102 70 2 2 23 -3 47 -11
44 -15 67 -12 40 6 -13 8 -13 11 3 23 10 8 15 20 11 29 -5 13 -10 14 -30 5
-13 -6 -24 -17 -24 -25 0 -7 -4 -13 -10 -13 -15 0 -90 41 -90 50 0 4 -14 10
-31 14 -31 6 -37 30 -8 32 30 2 32 4 13 18 -71 53 114 2 201 -55 39 -25 80
-51 93 -58 28 -15 18 -35 -15 -28 -16 3 -21 1 -15 -5 5 -5 29 -11 53 -13 24
-2 47 -4 52 -4 13 -2 7 -29 -7 -34 -8 -3 -16 -18 -18 -34 -2 -22 -8 -28 -25
-27 -23 1 -29 -7 -15 -20 4 -4 7 -32 7 -62 1 -62 18 -79 20 -19 1 38 2 40 32
40 17 0 35 3 39 8 12 12 24 8 24 -8 0 -8 8 -15 17 -15 12 0 7 -8 -16 -24 -46
-34 -75 -94 -60 -123 7 -13 17 -23 23 -24 6 -1 38 -2 71 -3 39 0 59 -5 58 -13
-1 -7 11 -11 32 -10 44 1 48 -3 32 -36 -13 -29 -37 -37 -37 -12 0 8 -4 15 -10
15 -5 0 -10 -7 -10 -15 0 -8 -4 -15 -10 -15 -20 0 -10 -41 13 -50 23 -10 58
-31 67 -40 3 -3 22 -13 42 -24 33 -16 36 -22 31 -47 -4 -19 -1 -29 6 -29 8 0
10 8 6 20 -4 11 -2 20 4 20 6 0 11 9 11 19 0 11 5 23 10 26 6 4 8 11 5 16 -9
13 59 11 72 -2 9 -9 20 -5 43 15 17 14 42 26 56 26 20 0 23 4 20 30 -2 17 1
30 6 30 6 0 7 7 4 16 -3 8 -2 12 4 9 5 -3 17 -2 27 3 29 15 115 36 156 37 21
1 40 5 44 9 3 3 17 6 30 6 12 0 23 4 23 9 0 5 29 12 65 16 36 3 67 11 70 15 3
5 12 7 19 4 7 -3 18 2 25 10 7 8 34 18 59 22 26 4 51 9 57 12 15 9 45 9 45 0
0 -14 28 -8 34 8 4 10 13 13 25 9 23 -7 120 17 188 46 l48 21 -30 21 c-16 12
-40 32 -52 44 -12 12 -30 23 -40 25 -22 4 -30 45 -9 50 29 6 -7 34 -94 71 -47
19 -98 39 -115 42 -49 11 -85 29 -85 42 0 7 9 13 19 13 25 0 36 16 17 23 -22
9 -15 59 8 63 14 2 16 0 7 -9 -13 -13 -15 -37 -3 -37 16 0 33 48 20 56 -7 5
-5 12 7 21 17 12 17 13 2 13 -31 0 -18 19 18 26 19 3 38 10 41 15 3 5 14 9 24
9 11 0 30 11 43 24 28 28 20 36 -35 36 -16 0 -36 6 -44 14 -16 17 -19 46 -4
46 18 0 10 27 -16 54 -20 19 -23 26 -11 26 9 0 20 -7 24 -15 8 -13 14 -13 48
4 45 23 65 26 65 10z m-646 -54 c3 -10 1 -15 -7 -13 -7 2 -13 -1 -14 -7 0 -5
4 -8 11 -7 37 12 56 11 56 -1 0 -9 9 -13 25 -12 14 2 27 -1 31 -6 3 -5 0 -9
-5 -9 -6 0 -11 -9 -11 -20 0 -21 -19 -26 -48 -11 -9 5 -39 18 -65 29 -38 15
-45 21 -31 26 16 6 16 8 4 16 -13 8 -12 10 3 10 9 0 17 5 17 10 0 16 27 12 34
-5z m504 -24 c3 -8 -1 -12 -9 -9 -7 2 -15 10 -17 17 -3 8 1 12 9 9 7 -2 15
-10 17 -17z m412 -21 c0 -5 -4 -10 -10 -10 -5 0 -10 5 -10 10 0 6 5 10 10 10
6 0 10 -4 10 -10z m-511 -19 c7 -5 10 -14 6 -20 -5 -9 -10 -9 -21 0 -26 22
-14 38 15 20z m55 -23 c18 -26 15 -32 -13 -23 -12 3 -21 15 -21 26 0 25 15 24
34 -3z m-289 2 c3 -5 -1 -10 -10 -10 -9 0 -13 5 -10 10 3 6 8 10 10 10 2 0 7
-4 10 -10z m870 -10 c-3 -5 -16 -10 -28 -10 -18 0 -19 2 -7 10 20 13 43 13 35
0z m251 -18 c-18 -16 -18 -16 -6 6 6 13 14 21 18 18 3 -4 -2 -14 -12 -24z
m-746 -15 c0 -6 -3 -7 -6 -4 -4 3 -18 -3 -32 -13 -36 -29 -59 -25 -50 8 1 4 8
6 14 4 7 -1 15 6 19 17 5 17 9 19 31 9 13 -6 24 -16 24 -21z m215 13 c-7 -11
-45 -33 -45 -26 0 2 7 12 16 20 17 18 39 22 29 6z m575 -20 c0 -5 -4 -10 -10
-10 -5 0 -10 5 -10 10 0 6 5 10 10 10 6 0 10 -4 10 -10z m-2490 -40 c0 -5 -2
-10 -4 -10 -3 0 -8 5 -11 10 -3 6 -1 10 4 10 6 0 11 -4 11 -10z m375 -70 c3
-5 -3 -10 -14 -10 -12 0 -21 5 -21 10 0 6 6 10 14 10 8 0 18 -4 21 -10z m2101
-47 c-10 -10 -19 5 -10 18 6 11 8 11 12 0 2 -7 1 -15 -2 -18z m-2341 -8 c0 -6
-10 -11 -22 -13 -25 -4 -66 15 -59 27 7 11 81 -2 81 -14z m190 15 c3 -5 -1
-10 -9 -10 -8 0 -18 5 -21 10 -3 6 1 10 9 10 8 0 18 -4 21 -10z m115 -6 c0 -2
-12 -4 -27 -4 -21 0 -24 3 -14 9 13 8 41 5 41 -5z m-410 -10 c0 -2 -7 -4 -15
-4 -8 0 -15 4 -15 10 0 5 7 7 15 4 8 -4 15 -8 15 -10z m458 -40 c-11 -11 -47
16 -42 31 5 12 10 11 27 -5 11 -11 18 -22 15 -26z m87 15 c15 -14 16 -22 7
-31 -9 -9 -13 -7 -18 5 -3 9 -12 17 -20 17 -8 0 -14 5 -14 10 0 6 -7 10 -15
10 -8 0 -15 5 -15 10 0 15 52 1 75 -21z m-190 1 c3 -5 28 -21 55 -36 28 -15
50 -33 50 -41 0 -16 -79 22 -125 61 -28 24 -29 25 -8 26 12 0 24 -4 28 -10z
m278 -17 c-13 -2 -33 -2 -45 0 -13 2 -3 4 22 4 25 0 35 -2 23 -4z m-119 -28
c15 -14 31 -25 37 -25 5 0 9 -7 9 -15 0 -8 -3 -15 -8 -15 -12 0 -82 60 -82 71
0 16 16 10 44 -16z m-697 9 c-3 -3 -12 -4 -19 -1 -8 3 -5 6 6 6 11 1 17 -2 13
-5z m808 -44 c-8 -13 -32 -2 -32 15 0 10 5 11 19 4 10 -6 16 -14 13 -19z
m-740 1 c2 -4 -20 -7 -48 -7 -29 0 -44 1 -34 3 9 3 17 8 17 12 0 9 58 2 65 -8z
m285 9 c8 -5 12 -11 9 -14 -3 -3 -14 1 -25 9 -21 16 -8 20 16 5z m345 -30 c3
-5 -3 -10 -14 -10 -12 0 -21 5 -21 10 0 6 6 10 14 10 8 0 18 -4 21 -10z m432
-162 c-1 -29 2 -68 6 -85 l9 -33 -49 6 c-26 4 -57 11 -68 17 -11 6 -37 10 -57
8 -23 -1 -38 3 -38 10 0 6 -7 9 -15 5 -9 -3 -15 0 -15 9 0 8 7 15 15 15 9 0
18 7 21 15 6 15 81 55 102 55 5 0 15 7 22 15 7 8 25 15 41 15 28 0 28 -1 26
-52z m513 2 c11 -21 -10 -50 -36 -50 -14 0 -21 60 -8 73 9 9 34 -4 44 -23z
m-217 6 c6 -16 -11 -36 -30 -36 -14 0 -16 10 -7 34 8 20 30 21 37 2z m262 -6
c3 -5 -1 -10 -9 -10 -9 0 -16 5 -16 10 0 6 4 10 9 10 6 0 13 -4 16 -10z
m-2431 -65 c35 -4 60 -25 31 -25 -18 0 -17 -2 5 -20 14 -11 30 -18 37 -15 16
5 36 -22 29 -40 -3 -8 -12 -15 -20 -15 -8 0 -17 -6 -19 -12 -4 -10 -7 -10 -14
0 -7 9 -25 10 -72 4 -34 -5 -64 -5 -66 -1 -3 4 -1 18 4 32 5 14 8 44 7 67 -3
41 -3 42 23 35 14 -3 39 -8 55 -10z m-214 -26 c0 -12 -7 -19 -20 -19 -22 0
-26 20 -8 38 15 15 28 6 28 -19z m-415 1 c-3 -5 -13 -10 -21 -10 -8 0 -12 5
-9 10 3 6 13 10 21 10 8 0 12 -4 9 -10z m675 -200 c0 -13 37 -13 45 0 3 6 15
6 29 0 13 -5 27 -6 30 -3 10 10 7 -22 -5 -56 -13 -36 -60 -70 -130 -95 -24 -8
-37 -15 -29 -16 10 0 5 -9 -15 -25 -27 -22 -28 -25 -10 -31 11 -5 20 -3 23 4
6 19 19 14 25 -9 4 -16 -1 -23 -21 -30 -15 -5 -32 -19 -37 -31 -6 -12 -23 -26
-40 -31 -40 -13 -39 -12 -18 -36 11 -13 29 -21 50 -21 41 0 41 -9 3 -46 -35
-34 -41 -89 -12 -110 16 -12 16 -14 -2 -27 -11 -8 -20 -23 -21 -33 0 -11 -5
-26 -10 -33 -6 -11 -2 -13 24 -8 24 5 33 3 38 -9 5 -12 7 -13 14 -3 16 27 21
-1 8 -46 -12 -39 -43 -86 -102 -155 -71 -82 -100 -166 -91 -259 12 -125 88
-223 230 -298 32 -17 50 -32 47 -40 -3 -7 -10 -10 -16 -6 -6 4 -8 -2 -4 -17 3
-13 1 -30 -5 -38 -8 -9 -8 -16 -2 -20 17 -12 23 -39 11 -51 -6 -6 -25 -11 -41
-11 -17 0 -40 -7 -50 -15 -21 -16 -51 -21 -42 -7 2 4 0 14 -5 22 -8 13 -10 13
-18 1 -5 -8 -7 -20 -4 -27 2 -6 0 -15 -6 -19 -20 -12 -12 -27 10 -20 13 5 25
2 29 -6 9 -14 -18 -32 -66 -43 l-29 -6 24 20 c28 24 13 26 -37 3 -58 -26 -123
-42 -169 -43 -24 0 -43 -5 -43 -11 0 -7 -11 -8 -30 -4 -18 4 -30 3 -30 -3 0
-6 8 -12 18 -14 14 -3 13 -5 -6 -10 -12 -3 -20 -3 -17 2 6 10 -44 60 -62 60
-7 0 -30 -11 -51 -23 -20 -13 -44 -22 -52 -19 -8 3 -12 1 -7 -3 4 -5 0 -19 -9
-33 -8 -13 -13 -30 -10 -38 3 -8 -1 -14 -9 -14 -8 0 -15 -6 -15 -13 0 -19 -67
-80 -79 -73 -7 5 -11 -2 -11 -17 0 -23 -19 -40 -47 -42 -7 0 -18 -8 -25 -17
-7 -9 -34 -20 -59 -23 l-47 -7 0 34 c0 18 -5 46 -11 61 -6 16 -11 39 -11 52 0
13 -5 25 -10 27 -19 6 -41 139 -35 210 4 39 2 69 -4 72 -6 4 -6 18 0 39 13 43
19 97 10 97 -10 0 -1 69 10 76 14 9 10 44 -6 50 -11 5 -12 11 -4 25 5 11 14
17 20 14 14 -9 10 7 -6 29 -11 14 -12 22 -4 27 15 9 22 99 8 99 -6 0 -9 7 -6
15 4 8 2 17 -3 20 -17 11 -11 24 15 31 14 3 22 10 19 15 -3 5 2 6 10 3 11 -4
16 0 16 15 0 12 5 21 10 21 6 0 10 7 10 16 0 11 -6 14 -20 9 -21 -7 -20 -8
-25 75 -1 19 3 30 12 30 19 0 16 27 -3 34 -14 6 -13 11 12 36 16 16 34 30 40
30 15 0 64 57 64 74 0 23 41 48 57 34 10 -8 27 -4 69 16 31 15 80 33 110 39
30 6 54 15 54 19 0 13 52 31 83 29 31 -3 57 14 57 35 0 14 -29 12 -70 -3 -8
-4 -26 -8 -40 -9 -58 -8 -76 -12 -100 -22 -14 -6 -49 -16 -79 -22 -30 -6 -59
-18 -66 -26 -9 -13 -16 -14 -32 -6 -17 9 -24 8 -38 -8 -13 -14 -22 -17 -31
-10 -6 6 -24 9 -39 6 -14 -3 -42 2 -61 11 -33 16 -45 33 -23 33 13 0 27 15 57
57 17 24 20 37 13 56 -7 19 -15 23 -38 20 -15 -2 -34 1 -42 6 -12 8 -12 14 2
44 21 44 21 47 -3 47 -29 0 -26 34 5 54 16 10 24 24 22 38 -1 16 5 23 27 29
16 4 37 17 48 28 12 14 31 21 54 21 27 0 37 5 41 19 2 10 16 24 29 30 27 12
33 41 8 41 -13 0 -9 7 12 27 24 22 38 27 82 26 29 0 56 -4 59 -7 12 -11 72 -6
85 8 10 10 35 12 93 9 100 -5 85 -5 184 2 46 3 92 10 100 15 9 4 27 6 41 4 14
-3 45 0 70 5 62 12 80 13 80 1z m-15 -190 c3 -5 2 -10 -4 -10 -5 0 -13 5 -16
10 -3 6 -2 10 4 10 5 0 13 -4 16 -10z m3619 -85 c-24 -18 -38 -14 -42 13 -3
17 2 22 17 22 13 0 21 7 22 18 0 10 5 6 11 -11 8 -23 7 -31 -8 -42z m-2960
-391 c9 -24 7 -28 -9 -14 -17 14 -20 30 -6 30 5 0 12 -7 15 -16z m-398 -476
c39 -27 50 -48 32 -60 -10 -6 -10 -8 2 -8 12 -1 12 -3 -2 -14 -10 -7 -18 -18
-18 -25 0 -6 -5 -11 -11 -11 -6 0 -9 7 -5 15 6 18 2 19 -26 4 -12 -7 -24 -7
-29 -2 -6 6 -34 6 -67 2 -57 -8 -71 -2 -72 29 0 6 -4 12 -10 12 -10 0 27 70
45 83 20 15 127 -2 161 -25z m-6 -144 c47 -31 50 -51 14 -88 -21 -20 -37 -26
-70 -26 -71 0 -163 48 -164 86 0 12 31 23 89 30 18 3 41 9 50 14 25 15 38 12
81 -16z m300 -179 c-17 -21 -30 -19 -30 6 0 11 4 18 9 14 5 -3 13 0 17 7 6 9
9 9 12 0 2 -7 -2 -19 -8 -27z m-125 6 c-3 -6 -11 -8 -17 -5 -6 4 -5 9 3 15 16
10 23 4 14 -10z m606 -151 l-10 -25 0 25 c-1 14 3 36 7 50 l7 25 3 -25 c2 -14
-2 -37 -7 -50z m-172 27 c0 -12 -3 -16 -6 -9 -2 6 -11 12 -18 12 -7 0 -15 -6
-18 -12 -2 -7 -8 -10 -12 -6 -12 11 11 33 34 35 16 1 21 -4 20 -20z m28 -9
c-3 -8 -6 -5 -6 6 -1 11 2 17 5 13 3 -3 4 -12 1 -19z m200 -10 c-3 -7 -5 -2
-5 12 0 14 2 19 5 13 2 -7 2 -19 0 -25z m-1101 -25 c-10 -10 -19 5 -10 18 6
11 8 11 12 0 2 -7 1 -15 -2 -18z m1437 -78 c17 -36 15 -43 -6 -25 -7 6 -21 17
-31 24 -11 7 -16 18 -12 24 13 22 32 12 49 -23z m-822 -2 c-8 -15 -10 -15 -11
-2 0 17 10 32 18 25 2 -3 -1 -13 -7 -23z m686 -5 c-3 -7 -5 -2 -5 12 0 14 2
19 5 13 2 -7 2 -19 0 -25z m2269 -3 c-4 -14 -11 -23 -15 -20 -5 3 -4 16 2 29
15 31 22 25 13 -9z m-2086 -36 c0 -6 -4 -7 -10 -4 -5 3 -10 11 -10 16 0 6 5 7
10 4 6 -3 10 -11 10 -16z m-916 -4 c-4 -8 -10 -15 -15 -15 -4 0 -6 7 -3 15 4
8 10 15 15 15 4 0 6 -7 3 -15z m-927 -17 c-3 -8 -6 -5 -6 6 -1 11 2 17 5 13 3
-3 4 -12 1 -19z m896 -43 c-3 -9 -8 -14 -10 -11 -3 3 -2 9 2 15 9 16 15 13 8
-4z m-79 -10 c-4 -8 -11 -15 -16 -15 -6 0 -5 6 2 15 7 8 14 15 16 15 2 0 1 -7
-2 -15z m813 -27 c-3 -8 -6 -5 -6 6 -1 11 2 17 5 13 3 -3 4 -12 1 -19z m943
-22 c0 -5 -7 -3 -15 4 -8 6 -19 9 -25 5 -6 -3 -10 3 -10 15 0 20 1 21 25 3 13
-10 25 -22 25 -27z m55 16 c-3 -3 -11 0 -18 7 -9 10 -8 11 6 5 10 -3 15 -9 12
-12z m-759 -38 c-4 -9 -9 -15 -11 -12 -3 3 -3 13 1 22 4 9 9 15 11 12 3 -3 3
-13 -1 -22z m-975 -11 c-8 -15 -10 -15 -11 -2 0 17 10 32 18 25 2 -3 -1 -13
-7 -23z m-21 -37 c0 -3 -4 -8 -10 -11 -5 -3 -10 -1 -10 4 0 6 5 11 10 11 6 0
10 -2 10 -4z m455 -5 c3 -5 1 -12 -5 -16 -5 -3 -10 1 -10 9 0 18 6 21 15 7z
m555 -1 c0 -5 -5 -10 -11 -10 -5 0 -7 -5 -3 -12 4 -7 3 -8 -4 -4 -6 4 -9 13
-5 21 6 17 23 20 23 5z m910 -11 c0 -5 -7 -9 -15 -9 -8 0 -15 7 -15 15 0 9 6
12 15 9 8 -4 15 -10 15 -15z m-1422 -24 c-3 -3 -9 2 -12 12 -6 14 -5 15 5 6 7
-7 10 -15 7 -18z m-153 -5 c3 -5 1 -10 -4 -10 -6 0 -11 5 -11 10 0 6 2 10 4
10 3 0 8 -4 11 -10z m236 -15 c5 4 9 2 9 -4 0 -15 -14 -21 -28 -12 -8 5 -10
15 -5 27 7 17 8 17 11 1 2 -9 8 -15 13 -12z m365 -7 c-12 -40 -17 -50 -22 -46
-5 6 13 58 20 58 3 0 4 -6 2 -12z m48 -10 c3 -13 6 -36 6 -53 0 -23 3 -27 10
-15 5 8 7 30 4 48 -4 17 -3 32 1 32 11 0 45 -41 45 -54 0 -6 9 -19 19 -28 12
-10 18 -25 15 -40 -2 -13 -2 -17 2 -10 8 17 22 15 46 -8 16 -14 18 -20 7 -20
-10 -1 -9 -4 4 -11 13 -7 22 -7 31 0 10 8 17 7 26 -4 11 -13 10 -19 -3 -33
-12 -11 -17 -12 -17 -4 0 9 -19 13 -67 12 -89 -1 -193 10 -193 21 0 5 4 9 8 9
15 0 36 75 35 128 -1 53 10 70 21 30z m-2394 -38 c-14 -4 -34 -8 -45 -9 -16
-1 -17 1 -5 9 8 5 29 9 45 9 29 -1 29 -1 5 -9z m2484 -6 c3 -8 2 -12 -4 -9 -6
3 -10 10 -10 16 0 14 7 11 14 -7z m281 6 c8 -13 -5 -13 -25 0 -13 8 -13 10 2
10 9 0 20 -4 23 -10z m-165 -24 c0 -17 39 -48 52 -40 6 4 28 -35 28 -52 0 -17
-94 13 -96 31 -1 6 -5 25 -9 43 -5 25 -3 32 9 32 9 0 16 -6 16 -14z m50 -8 c0
-13 -23 -5 -28 10 -2 7 2 10 12 6 9 -3 16 -11 16 -16z m119 -49 c4 -12 2 -12
-12 -1 -9 8 -21 11 -27 7 -6 -3 -10 3 -10 16 0 20 2 20 22 7 12 -8 24 -21 27
-29z m44 21 c4 0 5 5 2 10 -9 15 8 12 33 -6 13 -9 29 -13 37 -10 8 3 18 -1 22
-8 5 -8 17 -16 28 -18 15 -3 17 -5 5 -9 -8 -4 -39 2 -67 11 -29 9 -53 13 -53
9 0 -5 5 -9 11 -9 7 0 0 -12 -15 -26 -14 -15 -26 -33 -26 -40 0 -19 -18 -18
-22 2 -2 13 -7 12 -26 -6 -15 -15 -29 -19 -40 -14 -9 4 -25 8 -34 8 -30 2 -15
21 17 22 45 1 48 3 36 18 -16 19 5 32 52 30 20 0 37 1 37 3 0 2 -8 16 -17 31
-10 17 -11 22 -3 15 8 -7 18 -13 23 -13z m153 -7 c-7 -7 -26 7 -26 19 0 6 6 6
15 -2 9 -7 13 -15 11 -17z m-2955 -46 c-13 -13 -15 1 -4 30 7 17 8 17 11 -1 2
-10 -1 -23 -7 -29z m1879 3 c0 -5 -4 -10 -10 -10 -5 0 -10 5 -10 10 0 6 5 10
10 10 6 0 10 -4 10 -10z m1250 -34 c7 -9 9 -16 6 -16 -15 0 -44 20 -50 35 -4
12 -2 13 13 6 10 -6 23 -17 31 -25z m-1090 14 c0 -5 -4 -10 -10 -10 -5 0 -10
5 -10 10 0 6 5 10 10 10 6 0 10 -4 10 -10z m793 -4 c4 -10 1 -13 -8 -9 -8 3
-12 9 -9 14 7 12 11 11 17 -5z m-2778 -35 c-16 -14 -55 -23 -55 -12 0 8 16 14
55 20 6 0 6 -2 0 -8z m285 -21 c0 -5 -4 -10 -10 -10 -5 0 -10 5 -10 10 0 6 5
10 10 10 6 0 10 -4 10 -10z m-240 -23 c0 -13 5 -17 16 -13 10 4 18 0 21 -13 8
-31 113 -46 113 -17 0 30 27 44 75 38 35 -3 50 0 65 13 11 10 20 13 20 8 0
-18 31 -24 48 -11 13 11 15 10 9 -5 -6 -16 -3 -18 22 -12 26 5 36 0 73 -37 24
-24 50 -56 58 -71 8 -16 24 -39 37 -51 19 -19 23 -33 21 -75 -3 -55 -17 -77
-44 -67 -20 8 -64 -3 -64 -16 0 -15 -27 -38 -44 -38 -9 0 -16 -4 -16 -10 0 -5
9 -10 19 -10 17 0 19 -5 14 -37 -3 -21 -12 -55 -19 -75 -8 -24 -9 -40 -3 -44
6 -4 6 -11 -2 -20 -9 -11 -8 -14 2 -14 13 0 16 -12 20 -67 0 -10 -2 -28 -6
-40 -6 -18 -1 -26 24 -40 41 -24 46 -41 19 -71 -22 -23 -19 -31 9 -34 12 -1
32 -31 33 -47 0 -31 -73 9 -75 40 0 4 -12 19 -27 34 -15 15 -25 32 -22 37 4 6
-2 7 -16 3 -20 -6 -22 -5 -16 18 4 18 1 27 -10 31 -9 4 -14 13 -10 21 4 12 -3
15 -32 16 -43 1 -74 11 -73 24 0 6 -6 9 -12 8 -7 -2 -20 11 -29 27 -10 18 -25
30 -37 30 -11 0 -27 13 -38 30 -9 17 -20 30 -24 30 -3 0 -16 36 -29 80 -12 44
-29 85 -36 91 -8 6 -14 24 -14 39 0 15 -6 33 -14 39 -7 6 -16 31 -18 56 -4 31
-16 58 -40 87 -27 34 -34 53 -36 90 -1 42 1 47 26 56 40 14 62 10 62 -11z
m2085 -72 c-16 -7 -34 -11 -39 -8 -13 8 16 23 44 22 24 -1 24 -1 -5 -14z m-75
-95 c0 -5 -7 -10 -15 -10 -8 0 -15 5 -15 10 0 6 7 10 15 10 8 0 15 -4 15 -10z
m-1392 -187 c0 -10 3 -47 4 -83 l3 -64 42 -20 c51 -25 58 -39 37 -71 -20 -31
-32 -25 -26 15 5 33 -10 40 -28 13 -11 -17 -11 -17 -6 -1 3 12 -3 24 -20 35
-21 13 -25 23 -23 54 3 29 -2 44 -19 59 -18 17 -20 25 -12 41 6 11 8 24 5 29
-3 6 4 10 17 10 15 0 24 -6 26 -17z m452 -37 c0 -3 -4 -8 -10 -11 -5 -3 -10
-1 -10 4 0 6 5 11 10 11 6 0 10 -2 10 -4z m-10 -46 c0 -5 -5 -10 -11 -10 -5 0
-7 5 -4 10 3 6 8 10 11 10 2 0 4 -4 4 -10z m-500 -15 c0 -8 -4 -15 -10 -15 -5
0 -10 7 -10 15 0 8 5 15 10 15 6 0 10 -7 10 -15z m-56 -20 c-4 -8 -10 -12 -15
-9 -5 3 -13 -5 -18 -18 -8 -22 -9 -22 -17 -4 -5 14 -1 24 15 38 25 20 43 16
35 -7z m77 -21 c12 -14 11 -16 -5 -13 -11 2 -21 10 -24 17 -5 17 13 15 29 -4z
m-115 -61 c-10 -10 -19 5 -10 18 6 11 8 11 12 0 2 -7 1 -15 -2 -18z m771 -45
c-3 -8 -6 -5 -6 6 -1 11 2 17 5 13 3 -3 4 -12 1 -19z m-202 -68 c3 -5 1 -10
-4 -10 -6 0 -11 5 -11 10 0 6 2 10 4 10 3 0 8 -4 11 -10z m2882 -27 c-3 -10
-5 -4 -5 12 0 17 2 24 5 18 2 -7 2 -21 0 -30z m-2200 -65 c-3 -8 -6 -5 -6 6
-1 11 2 17 5 13 3 -3 4 -12 1 -19z m-467 -44 c0 -8 -5 -12 -10 -9 -6 4 -8 11
-5 16 9 14 15 11 15 -7z m-15 -23 c3 -5 1 -12 -5 -16 -5 -3 -10 1 -10 9 0 18
6 21 15 7z m2632 -17 c-3 -3 -12 -4 -19 -1 -8 3 -5 6 6 6 11 1 17 -2 13 -5z
m-130 -116 c-3 -8 -6 -5 -6 6 -1 11 2 17 5 13 3 -3 4 -12 1 -19z m304 -21
c-15 -15 -14 -46 3 -79 12 -23 12 -29 0 -39 -8 -6 -14 -19 -14 -28 0 -9 -14
-27 -30 -40 -21 -16 -30 -32 -30 -52 0 -16 -5 -29 -10 -29 -6 0 -8 -15 -4 -40
5 -32 4 -40 -9 -40 -8 0 -17 6 -20 13 -3 7 -9 0 -16 -15 -6 -16 -17 -28 -25
-28 -11 0 -13 -12 -9 -60 5 -52 3 -60 -13 -67 -17 -6 -16 -8 6 -13 27 -6 35
-27 20 -50 -8 -13 -12 -12 -25 7 -9 13 -22 20 -31 16 -10 -4 -17 2 -21 16 -6
23 -18 27 -28 10 -4 -5 0 -18 9 -28 9 -10 16 -22 16 -27 0 -16 47 -33 59 -21
19 19 21 1 4 -33 -12 -24 -13 -35 -5 -38 7 -2 10 -8 6 -13 -8 -14 -24 -11 -24
5 0 7 -7 19 -15 26 -21 18 -45 -4 -45 -41 0 -15 -5 -40 -12 -54 -10 -22 -9
-28 3 -36 10 -6 10 -9 2 -9 -7 0 -13 -10 -13 -22 -1 -21 -2 -21 -11 -5 -16 28
-29 20 -29 -20 0 -20 -6 -44 -14 -52 -11 -13 -12 -18 -2 -28 8 -7 18 -8 27 -2
10 6 10 9 2 9 -9 0 -7 6 5 18 24 26 32 18 25 -23 -5 -34 8 -48 22 -25 9 14 35
12 35 -2 0 -7 9 -24 20 -38 23 -29 25 -42 8 -39 -30 4 -39 -2 -37 -23 1 -13
-2 -32 -6 -42 -8 -18 8 -39 39 -49 8 -3 7 -12 -3 -31 -11 -20 -12 -29 -3 -38
20 -20 14 -34 -23 -48 -39 -15 -43 -24 -18 -38 12 -7 21 -4 34 12 l18 21 1
-22 c0 -12 -5 -25 -11 -28 -6 -4 -8 -13 -5 -20 5 -13 -12 -35 -26 -35 -4 0 -8
11 -8 25 0 41 -40 29 -66 -20 -17 -33 -17 -35 -3 -35 7 0 18 8 26 18 11 13 13
14 12 2 -3 -21 12 -53 30 -66 16 -12 24 -44 11 -44 -4 0 -18 8 -31 18 -23 18
-25 18 -52 2 -25 -16 -27 -19 -13 -33 15 -14 13 -47 -3 -47 -15 1 -42 30 -37
39 4 5 1 13 -5 16 -6 4 -13 -2 -16 -15 -3 -11 -11 -19 -18 -17 -6 3 -17 -3
-23 -14 -7 -11 -18 -16 -27 -13 -18 7 -20 -11 -3 -22 22 -14 109 -12 115 2 10
26 28 14 27 -16 -2 -48 -3 -50 -24 -50 -11 0 -20 -6 -20 -14 0 -9 -7 -12 -20
-9 -14 4 -21 -1 -26 -21 -8 -31 1 -45 18 -28 18 18 68 15 68 -3 0 -9 -10 -15
-26 -15 -20 0 -25 -4 -20 -17 9 -21 -29 -56 -62 -57 -19 -1 -28 -8 -32 -26 -4
-17 -13 -25 -27 -25 -12 0 -36 -15 -54 -32 -29 -31 -42 -38 -63 -34 -5 1 -15
-7 -23 -18 -7 -11 -31 -25 -52 -31 -21 -5 -58 -25 -82 -42 -24 -18 -55 -39
-69 -46 -74 -41 -175 -92 -181 -92 -5 0 -41 -16 -81 -35 -40 -20 -80 -37 -88
-39 -16 -3 -38 -11 -78 -27 -13 -5 -30 -9 -38 -9 -9 0 -22 -7 -30 -15 -9 -8
-24 -15 -34 -15 -10 0 -22 -4 -25 -10 -7 -12 -36 -14 -33 -2 2 4 -1 8 -7 10
-5 1 -10 -2 -10 -7 0 -5 -11 -19 -24 -30 -21 -18 -43 -25 -106 -34 -5 -1 -23
-14 -39 -29 -16 -15 -45 -30 -65 -34 -47 -7 -131 -42 -156 -64 -18 -15 -84
-49 -207 -104 -20 -9 -44 -16 -53 -16 -9 0 -25 -5 -36 -10 -10 -6 -44 -15 -76
-21 -31 -6 -66 -17 -77 -24 -12 -8 -40 -16 -63 -19 -24 -3 -80 -22 -125 -44
-46 -21 -95 -42 -109 -45 -14 -4 -36 -16 -49 -27 -13 -11 -27 -20 -32 -20 -6
0 -21 -9 -36 -20 l-25 -20 -13 27 c-7 16 -15 45 -19 65 -3 21 -13 41 -22 46
-21 12 -8 32 20 32 18 1 15 4 -12 15 l-33 15 26 35 c23 29 25 38 15 56 -9 18
-8 24 4 30 15 9 12 59 -4 59 -5 0 -9 6 -9 14 0 8 -9 21 -19 28 -17 12 -25 35
-22 64 0 7 10 14 22 17 15 4 20 12 17 29 -2 19 2 24 25 26 15 2 27 7 27 11 0
12 -24 38 -39 43 -8 2 10 15 39 27 l54 23 -34 18 -33 17 36 12 c42 14 48 37
13 50 -38 15 -40 39 -4 43 43 4 47 25 6 33 -18 4 -49 20 -68 37 -19 16 -30 27
-24 24 14 -7 26 18 18 38 -3 7 2 16 10 19 23 9 20 44 -4 52 -11 3 -20 15 -20
26 0 10 -6 19 -12 20 -10 0 -10 2 -1 5 14 6 -15 59 -57 103 -19 22 -23 31 -14
35 7 3 16 1 19 -4 12 -19 33 -10 38 16 4 25 4 26 -38 19 l-43 -6 0 46 c1 29 6
49 15 52 22 9 2 25 -22 19 -28 -7 -45 13 -21 26 22 13 20 24 -6 32 l-23 7 22
9 c15 6 21 15 17 25 -3 8 -1 15 5 15 24 0 9 19 -16 22 -33 4 -44 35 -16 44 10
3 28 11 40 16 15 7 27 8 35 1 35 -26 94 1 69 31 -10 11 -8 16 6 24 15 9 13 12
-17 25 -23 9 -36 10 -39 3 -2 -5 1 -12 8 -14 6 -2 11 -11 11 -19 0 -11 -5 -13
-17 -8 -23 10 -54 8 -62 -2 -3 -4 -14 -14 -24 -22 -15 -12 -17 -12 -12 1 4 9
-1 18 -9 21 -9 4 -16 15 -16 26 0 16 6 19 34 17 28 -3 33 0 29 15 -7 25 36 49
98 54 30 3 65 7 79 11 20 4 22 3 10 -5 -12 -9 -11 -11 8 -11 13 0 30 7 38 15
21 20 27 19 66 -12 18 -15 27 -20 19 -10 -10 12 -11 21 -4 28 7 7 27 2 63 -16
55 -28 108 -34 153 -16 24 9 27 8 27 -11 0 -11 -8 -27 -17 -34 -17 -12 -17
-13 3 -14 22 0 39 24 28 41 -10 16 5 59 20 59 8 0 17 7 20 17 6 14 8 14 21 -3
8 -10 15 -14 15 -8 0 7 7 15 16 18 10 4 13 2 8 -7 -5 -7 -1 -7 10 2 23 19 64
20 100 2 34 -17 120 -18 140 -2 23 19 107 26 117 10 5 -9 9 -9 9 -2 0 20 87
55 125 51 19 -2 35 0 35 4 0 4 9 8 20 8 12 0 33 6 49 14 17 9 32 11 42 6 11
-8 7 -15 -21 -39 -19 -17 -30 -30 -23 -31 6 0 25 14 42 30 16 17 32 26 36 21
3 -5 1 -12 -5 -16 -6 -4 -8 -11 -5 -16 11 -18 40 -9 68 21 16 17 33 27 38 24
6 -3 16 0 24 6 11 9 15 9 15 1 0 -9 6 -8 23 1 12 6 31 12 43 12 11 1 28 7 37
14 9 8 21 11 27 7 5 -3 10 1 10 9 0 9 6 16 13 16 20 0 45 31 60 75 20 56 38
58 25 3 -13 -49 -45 -101 -59 -93 -5 4 -9 1 -9 -4 0 -20 21 -11 51 21 20 22
33 52 41 92 10 48 18 63 40 75 36 21 47 45 15 35 -12 -4 -25 -11 -28 -17 -4
-5 -13 -7 -20 -5 -7 2 3 14 24 27 20 12 37 27 37 32 0 5 4 9 8 9 4 0 8 -18 9
-40 2 -35 -2 -42 -28 -56 -18 -9 -28 -21 -26 -28 3 -8 0 -19 -6 -25 -9 -9 -8
-11 6 -5 10 3 16 12 13 19 -5 15 21 30 57 34 10 1 13 18 12 66 -1 36 2 65 6
65 5 0 8 -3 8 -7 -1 -5 0 -21 1 -38 l2 -30 10 33 c12 35 34 43 41 15 4 -15 6
-15 12 5 4 12 11 22 16 22 4 0 11 16 15 35 6 31 24 50 24 25 0 -5 7 -10 15
-10 9 0 15 6 14 13 -4 32 3 46 24 49 12 2 26 13 31 25 8 17 18 21 51 20 30 0
51 6 71 22 28 22 29 23 9 38 -14 11 -15 14 -4 10 9 -3 22 0 28 6 8 8 11 5 11
-13 l1 -25 18 22 c10 12 21 20 24 17 9 -9 62 51 59 67 -2 13 5 16 40 15 40 -1
43 1 41 24 -3 42 5 54 23 36 19 -20 38 -20 58 -1 8 8 18 15 23 15 14 0 53 66
52 86 -1 10 -1 30 -1 43 2 20 4 21 17 11 10 -8 15 -30 15 -61 0 -27 3 -49 8
-49 27 1 73 75 51 82 -6 2 -7 12 -3 22 7 19 8 19 15 0 5 -12 6 -3 4 23 -4 47
16 77 32 48 13 -22 43 -8 43 20 0 32 23 82 36 78 6 -2 24 3 40 12 30 15 47 4
25 -18z m-281 -4 c0 -5 -4 -15 -10 -23 -11 -18 -25 -7 -17 15 6 15 27 21 27 8z
m-40 -52 c0 -6 -4 -13 -10 -16 -5 -3 -10 1 -10 9 0 9 5 16 10 16 6 0 10 -4 10
-9z m-2500 -81 c0 -5 -8 -10 -17 -10 -15 0 -16 2 -3 10 19 12 20 12 20 0z
m2600 6 c0 -3 -4 -8 -10 -11 -5 -3 -10 -1 -10 4 0 6 5 11 10 11 6 0 10 -2 10
-4z m-2574 -41 c-3 -8 -1 -15 3 -15 5 0 6 -10 3 -22 -5 -22 -6 -21 -13 6 -8
28 -5 46 8 46 3 0 3 -7 -1 -15z m-41 -15 c-3 -5 -11 -10 -16 -10 -6 0 -7 5 -4
10 3 6 11 10 16 10 6 0 7 -4 4 -10z m85 -30 c0 -5 -5 -10 -11 -10 -5 0 -7 5
-4 10 3 6 8 10 11 10 2 0 4 -4 4 -10z m2436 -6 c-3 -9 -6 -20 -6 -25 0 -4 -7
-6 -15 -3 -8 4 -15 13 -15 21 0 8 5 11 10 8 6 -3 10 -1 10 4 0 6 5 11 11 11 6
0 8 -7 5 -16z m-856 -155 c0 -23 -25 -25 -34 -3 -10 26 -7 32 14 27 11 -3 20
-14 20 -24z m-73 -21 c5 -7 10 -29 11 -48 l2 -35 -19 40 c-11 22 -20 43 -20
48 -1 11 16 8 26 -5z m-470 -20 c-3 -8 -6 -5 -6 6 -1 11 2 17 5 13 3 -3 4 -12
1 -19z m533 -8 c0 -3 -7 -15 -15 -26 -14 -18 -14 -18 -15 7 0 16 5 26 15 26 8
0 15 -3 15 -7z m259 -55 l0 -20 -9 20 c-5 11 -9 29 -9 40 l0 20 9 -20 c5 -11
9 -29 9 -40z m-442 -7 c-3 -8 -6 -5 -6 6 -1 11 2 17 5 13 3 -3 4 -12 1 -19z
m270 -30 c-3 -7 -5 -2 -5 12 0 14 2 19 5 13 2 -7 2 -19 0 -25z m90 10 c-3 -8
-6 -5 -6 6 -1 11 2 17 5 13 3 -3 4 -12 1 -19z m-760 -45 c-3 -10 -5 -4 -5 12
0 17 2 24 5 18 2 -7 2 -21 0 -30z m34 -53 c-4 -23 -5 -22 -12 9 -9 42 2 80 11
41 3 -14 4 -36 1 -50z m819 31 c0 -19 -17 -38 -25 -29 -7 7 7 48 16 48 5 0 9
-9 9 -19z m-1090 -10 c0 -20 -13 -35 -23 -25 -7 8 4 44 14 44 5 0 9 -9 9 -19z
m360 4 c0 -8 -4 -15 -10 -15 -5 0 -10 7 -10 15 0 8 5 15 10 15 6 0 10 -7 10
-15z m772 -17 c-7 -7 -12 -8 -12 -2 0 14 12 26 19 19 2 -3 -1 -11 -7 -17z
m-1602 -36 c0 -13 -4 -20 -10 -17 -5 3 -10 21 -10 38 0 24 3 28 10 17 5 -8 10
-25 10 -38z m800 34 c0 -8 -7 -16 -15 -20 -10 -4 -15 1 -15 14 0 11 7 20 15
20 8 0 15 -6 15 -14z m570 -7 c0 -11 -4 -18 -10 -14 -5 3 -7 12 -3 20 7 21 13
19 13 -6z m-434 -16 c-10 -10 -19 5 -10 18 6 11 8 11 12 0 2 -7 1 -15 -2 -18z
m-515 -10 c-8 -15 -10 -15 -11 -2 0 17 10 32 18 25 2 -3 -1 -13 -7 -23z m451
-5 c-7 -7 -12 -8 -12 -2 0 14 12 26 19 19 2 -3 -1 -11 -7 -17z m106 -3 c-3 -3
-9 2 -12 12 -6 14 -5 15 5 6 7 -7 10 -15 7 -18z m-37 -22 c-8 -15 -10 -15 -11
-2 0 17 10 32 18 25 2 -3 -1 -13 -7 -23z m614 17 c-3 -5 -13 -10 -21 -10 -8 0
-12 5 -9 10 3 6 13 10 21 10 8 0 12 -4 9 -10z m-558 -42 c-3 -8 -6 -5 -6 6 -1
11 2 17 5 13 3 -3 4 -12 1 -19z m-134 -13 c-3 -9 -8 -14 -10 -11 -3 3 -2 9 2
15 9 16 15 13 8 -4z m-303 -33 c0 -4 -9 -13 -21 -20 -19 -12 -19 -11 -9 8 10
19 30 28 30 12z m356 -58 c-3 -8 -11 -14 -18 -14 -9 0 -9 3 0 12 7 7 12 19 12
27 0 11 -4 10 -16 -5 -17 -21 -8 2 10 25 9 12 12 10 14 -8 2 -12 1 -29 -2 -37z
m1380 -30 c-3 -9 -6 -19 -6 -23 0 -4 -9 -7 -20 -7 -11 0 -20 4 -20 8 0 4 5 8
10 8 6 0 9 3 9 8 -3 16 2 22 17 22 11 0 14 -5 10 -16z m-1487 -20 c-14 -18
-24 -11 -15 11 3 9 11 13 16 10 8 -5 7 -11 -1 -21z m91 6 c0 -5 -4 -10 -10
-10 -5 0 -10 5 -10 10 0 6 5 10 10 10 6 0 10 -4 10 -10z m1460 0 c0 -5 -2 -10
-4 -10 -3 0 -8 5 -11 10 -3 6 -1 10 4 10 6 0 11 -4 11 -10z m-1580 -36 c0 -8
-5 -12 -10 -9 -6 3 -17 -1 -26 -9 -8 -9 -23 -16 -31 -16 -12 0 -10 5 8 23 28
26 59 32 59 11z m440 -26 c0 -5 -7 -8 -15 -8 -17 0 -18 2 -9 25 5 13 8 14 15
3 5 -7 9 -16 9 -20z m-476 -23 c-4 -8 -8 -15 -10 -15 -2 0 -4 7 -4 15 0 8 4
15 10 15 5 0 7 -7 4 -15z m282 -51 c-3 -9 -6 -20 -6 -25 0 -5 -7 -9 -15 -9 -8
0 -15 2 -15 4 0 2 -3 11 -6 19 -3 10 2 17 13 20 32 8 35 7 29 -9z m44 0 c0
-14 -3 -14 -15 -4 -8 7 -15 14 -15 16 0 2 7 4 15 4 8 0 15 -7 15 -16z m80 -14
c0 -5 -4 -10 -10 -10 -5 0 -10 5 -10 10 0 6 5 10 10 10 6 0 10 -4 10 -10z
m-80 -14 c0 -3 -4 -8 -10 -11 -5 -3 -10 -1 -10 4 0 6 5 11 10 11 6 0 10 -2 10
-4z m-233 -22 c-3 -3 -12 -4 -19 -1 -8 3 -5 6 6 6 11 1 17 -2 13 -5z m-152
-49 c-16 -7 -34 -10 -39 -7 -12 7 21 21 49 20 15 0 13 -3 -10 -13z m-123 -17
c-6 -6 -15 -8 -19 -4 -4 4 -1 11 7 16 19 12 27 3 12 -12z m-438 3 c19 -7 19
-8 -2 -13 -12 -4 -26 0 -33 8 -13 16 2 18 35 5z m309 2 c-7 -2 -19 -2 -25 0
-7 3 -2 5 12 5 14 0 19 -2 13 -5z m97 2 c0 -16 -51 -35 -76 -29 l-29 8 40 12
c44 14 65 17 65 9z m-441 -30 c7 -7 -2 -13 -24 -15 -39 -4 -55 0 -55 15 0 10
9 13 37 9 20 -2 39 -7 42 -9z m71 -20 c0 -13 -23 -31 -45 -34 -5 -1 -19 -4
-31 -7 -22 -6 -101 22 -91 32 3 3 14 1 25 -5 11 -6 21 -8 23 -6 3 2 17 6 31 9
15 2 35 9 45 15 26 15 43 13 43 -4z m2171 -208 c-1 -12 -15 -9 -19 4 -3 6 1
10 8 8 6 -3 11 -8 11 -12z m-45 -42 c13 -13 12 -15 -11 -21 -32 -8 -41 0 -24
20 17 19 17 19 35 1z m-2706 -25 c0 -5 -7 -10 -15 -10 -8 0 -15 5 -15 10 0 6
7 10 15 10 8 0 15 -4 15 -10z m2702 -172 c-7 -7 -12 -8 -12 -2 0 14 12 26 19
19 2 -3 -1 -11 -7 -17z m-72 -33 c7 -9 8 -15 2 -15 -5 0 -12 7 -16 15 -3 8 -4
15 -2 15 2 0 9 -7 16 -15z m-2615 -5 c3 -5 -1 -10 -9 -10 -9 0 -16 5 -16 10 0
6 4 10 9 10 6 0 13 -4 16 -10z m122 -1182 c-3 -8 -6 -5 -6 6 -1 11 2 17 5 13
3 -3 4 -12 1 -19z m-4805 -3453 c0 -5 -5 -11 -11 -13 -6 -2 -11 4 -11 13 0 9
5 15 11 13 6 -2 11 -8 11 -13z m8 -40 c0 -8 -7 -15 -15 -15 -26 0 -18 20 13
29 1 1 2 -6 2 -14z m-481 -4121 c13 -27 29 -62 36 -79 7 -16 24 -55 38 -85 22
-50 42 -105 76 -211 14 -45 14 -100 0 -136 -10 -26 -23 -85 -51 -240 -6 -35
-14 -63 -17 -63 -9 0 -41 114 -50 181 -5 30 -13 71 -20 90 -25 79 -73 409 -77
539 l-4 135 23 -41 c13 -22 34 -63 46 -90z m1121 -1174 c0 -5 -4 -10 -10 -10
-5 0 -10 5 -10 10 0 6 5 10 10 10 6 0 10 -4 10 -10z"/>
<path d="M12970 18860 c0 -5 5 -10 10 -10 6 0 10 5 10 10 0 6 -4 10 -10 10 -5
0 -10 -4 -10 -10z"/>
<path d="M12990 18831 c0 -5 12 -17 28 -26 l27 -18 -24 27 c-26 28 -31 31 -31
17z"/>
<path d="M13080 18738 c0 -9 5 -20 10 -23 13 -8 13 5 0 25 -8 13 -10 13 -10
-2z"/>
<path d="M10805 16209 c-4 -6 -5 -12 -2 -15 2 -3 7 2 10 11 7 17 1 20 -8 4z"/>
<path d="M11121 16062 c-17 -31 -13 -40 5 -14 9 13 14 26 11 29 -3 2 -10 -4
-16 -15z"/>
<path d="M11625 16070 c3 -5 8 -10 11 -10 2 0 4 5 4 10 0 6 -5 10 -11 10 -5 0
-7 -4 -4 -10z"/>
<path d="M11367 16040 c-3 -12 -14 -20 -25 -20 -27 0 -52 -10 -52 -20 0 -11
71 0 88 13 14 11 17 47 3 47 -5 0 -11 -9 -14 -20z"/>
<path d="M11406 16032 c-2 -4 -1 -14 3 -21 6 -10 10 -9 14 3 6 16 -8 32 -17
18z"/>
<path d="M11590 15874 c0 -11 5 -25 12 -32 9 -9 9 -12 0 -12 -7 0 -12 -5 -12
-12 0 -21 35 -87 46 -88 16 0 24 24 13 41 -8 12 -11 12 -20 -1 -8 -12 -9 -10
-4 7 3 13 1 40 -6 60 -16 47 -29 64 -29 37z"/>
<path d="M11670 15750 c6 -11 12 -20 14 -20 2 0 2 9 -1 20 -3 11 -9 20 -15 20
-5 0 -4 -9 2 -20z"/>
<path d="M9500 15710 c-12 -8 -11 -10 8 -10 12 0 22 5 22 10 0 13 -11 13 -30
0z"/>
<path d="M9345 15491 c-3 -5 -1 -12 5 -16 5 -3 10 1 10 9 0 18 -6 21 -15 7z"/>
<path d="M9324 15435 c-10 -26 10 -39 30 -19 16 15 17 15 11 -9 -6 -20 -1 -28
29 -47 20 -12 36 -26 36 -31 0 -18 29 -9 41 12 10 20 9 21 -13 16 -13 -3 -30
-2 -38 3 -13 8 -13 10 1 10 18 0 33 26 23 41 -3 6 -14 7 -24 4 -11 -3 -22 0
-27 9 -13 23 -62 31 -69 11z"/>
<path d="M9580 15324 c0 -3 4 -13 9 -23 5 -9 6 -23 1 -31 -6 -9 0 -20 16 -33
13 -10 22 -23 19 -28 -4 -5 9 -9 28 -9 19 0 49 -3 66 -6 26 -6 30 -4 25 10 -3
9 -1 23 6 31 14 17 7 45 -12 45 -10 0 -10 -2 0 -9 11 -6 10 -11 -3 -25 -19
-18 -41 -21 -50 -6 -3 6 1 10 9 10 9 0 16 5 16 10 0 6 -7 10 -16 10 -8 0 -35
14 -59 30 -44 30 -55 35 -55 24z"/>
<path d="M9424 15275 c11 -8 23 -15 27 -15 3 0 12 -12 18 -27 6 -16 20 -39 30
-52 18 -23 18 -23 24 -2 3 11 1 19 -4 15 -5 -3 -9 9 -9 26 0 23 -6 33 -24 40
-13 5 -27 14 -31 19 -3 6 -16 11 -28 11 -22 -1 -22 -1 -3 -15z"/>
<path d="M9773 15183 c9 -2 25 -2 35 0 9 3 1 5 -18 5 -19 0 -27 -2 -17 -5z"/>
<path d="M9998 15113 c6 -2 18 -2 25 0 6 3 1 5 -13 5 -14 0 -19 -2 -12 -5z"/>
<path d="M11730 15030 c0 -5 5 -10 10 -10 6 0 10 5 10 10 0 6 -4 10 -10 10 -5
0 -10 -4 -10 -10z"/>
<path d="M11770 15028 c0 -21 17 -41 28 -34 14 8 3 46 -14 46 -8 0 -14 -6 -14
-12z"/>
<path d="M9086 14835 c-9 -25 -9 -25 30 -25 28 0 35 3 32 18 -4 23 -53 29 -62
7z"/>
<path d="M9224 14665 c-7 -18 3 -35 22 -35 8 0 26 -7 39 -16 23 -15 25 -15 25
0 0 9 -11 22 -25 28 -14 6 -25 15 -25 19 0 14 -31 18 -36 4z"/>
<path d="M9529 14637 c-12 -27 -35 -27 -25 -1 4 11 -5 14 -45 13 -39 -2 -49
-5 -44 -17 3 -8 0 -21 -6 -28 -9 -11 -8 -19 7 -35 15 -17 16 -22 4 -29 -11 -7
-8 -11 13 -19 15 -6 31 -21 36 -33 5 -14 10 -17 15 -10 11 19 36 14 36 -7 0
-37 69 -43 104 -8 12 12 32 22 43 23 16 0 19 -5 15 -25 -5 -23 -3 -25 11 -12
15 12 19 10 37 -10 10 -13 17 -31 14 -40 -3 -11 3 -18 15 -22 28 -7 33 2 16
27 -8 11 -15 28 -15 38 0 10 -4 18 -10 18 -5 0 -10 7 -10 15 0 8 -5 15 -12 15
-6 0 -2 8 10 18 l21 18 -30 28 c-16 15 -29 32 -29 38 0 17 -29 40 -41 32 -7
-4 -18 1 -25 10 -7 10 -31 20 -53 23 -36 5 -41 3 -52 -20z"/>
<path d="M9746 14486 c3 -9 11 -16 16 -16 13 0 5 23 -10 28 -7 2 -10 -2 -6
-12z"/>
<path d="M11680 14209 c-14 -25 -6 -49 15 -49 11 0 15 10 15 35 0 39 -14 46
-30 14z"/>
<path d="M9316 14130 c-16 -5 -53 -21 -82 -36 -58 -29 -69 -53 -32 -69 17 -8
32 -26 44 -53 1 -2 18 8 39 22 25 18 42 23 53 17 20 -11 52 -3 79 21 16 15 41
21 95 25 40 2 79 6 86 8 22 8 13 41 -15 55 -34 16 -227 23 -267 10z"/>
<path d="M9767 14005 c-48 -33 -50 -57 -2 -39 13 5 52 64 43 64 -2 0 -20 -11
-41 -25z"/>
<path d="M9655 13949 c-32 -4 -61 -12 -63 -17 -2 -6 -9 -9 -16 -6 -7 3 -19 -2
-26 -11 -7 -8 -21 -15 -31 -15 -25 0 -24 -12 4 -37 24 -22 69 -40 66 -26 -5
22 15 43 42 43 31 0 41 26 14 36 -8 4 -12 10 -9 15 3 5 13 5 24 -1 21 -11 70
-4 70 10 0 15 -13 16 -75 9z"/>
<path d="M8930 13890 c0 -5 5 -10 11 -10 5 0 7 5 4 10 -3 6 -8 10 -11 10 -2 0
-4 -4 -4 -10z"/>
<path d="M9470 13840 c0 -5 5 -10 10 -10 6 0 10 5 10 10 0 6 -4 10 -10 10 -5
0 -10 -4 -10 -10z"/>
<path d="M8881 13553 c-1 -6 -4 -20 -7 -30 -5 -17 -5 -17 6 0 6 10 9 23 6 30
-3 9 -5 9 -5 0z"/>
<path d="M10690 13371 c0 -5 5 -13 10 -16 6 -3 10 -2 10 4 0 5 -4 13 -10 16
-5 3 -10 2 -10 -4z"/>
<path d="M10511 13193 c0 -6 -4 -20 -7 -30 -5 -14 -4 -15 5 -7 7 7 11 20 8 30
-3 11 -5 14 -6 7z"/>
<path d="M10440 13039 c0 -5 5 -7 10 -4 6 3 10 8 10 11 0 2 -4 4 -10 4 -5 0
-10 -5 -10 -11z"/>
<path d="M9240 12905 c0 -8 5 -15 11 -15 5 0 8 -4 5 -9 -3 -4 7 -6 21 -3 l26
5 -22 18 c-28 23 -41 24 -41 4z"/>
<path d="M9131 12874 c0 -11 3 -14 6 -6 3 7 2 16 -1 19 -3 4 -6 -2 -5 -13z"/>
<path d="M9080 12863 c0 -5 5 -15 10 -23 8 -12 10 -11 10 8 0 12 -4 22 -10 22
-5 0 -10 -3 -10 -7z"/>
<path d="M9342 12553 c2 -5 12 -25 21 -45 10 -21 22 -38 27 -38 5 0 0 20 -12
45 -12 25 -26 45 -31 45 -5 0 -7 -3 -5 -7z"/>
<path d="M9590 12481 c0 -5 7 -12 16 -15 14 -5 15 -4 4 9 -14 17 -20 19 -20 6z"/>
<path d="M11275 12405 c-8 -14 -22 -36 -30 -50 -8 -13 -15 -27 -15 -30 0 -11
29 -4 37 9 4 7 15 15 23 18 16 5 25 78 10 78 -5 0 -16 -11 -25 -25z"/>
<path d="M8401 12304 c0 -11 3 -14 6 -6 3 7 2 16 -1 19 -3 4 -6 -2 -5 -13z"/>
<path d="M9240 12304 c0 -11 34 -64 42 -64 4 0 -2 16 -13 35 -20 33 -29 42
-29 29z"/>
<path d="M11181 12281 c-13 -23 -1 -34 24 -25 18 7 17 35 -2 41 -6 2 -16 -5
-22 -16z"/>
<path d="M9290 12220 c0 -5 5 -10 11 -10 5 0 7 5 4 10 -3 6 -8 10 -11 10 -2 0
-4 -4 -4 -10z"/>
<path d="M8580 12204 c0 -8 5 -12 10 -9 6 3 10 10 10 16 0 5 -4 9 -10 9 -5 0
-10 -7 -10 -16z"/>
<path d="M11048 12154 c-5 -4 -8 -19 -8 -33 0 -18 3 -22 11 -14 6 6 9 21 7 33
-1 12 -6 18 -10 14z"/>
<path d="M8722 12087 c-10 -11 -9 -17 2 -26 18 -15 31 2 18 25 -7 13 -10 13
-20 1z"/>
<path d="M10956 12034 c-9 -24 -7 -62 4 -69 6 -3 10 -16 10 -28 0 -18 2 -19
10 -7 8 13 10 12 10 -3 0 -10 5 -15 10 -12 10 6 7 101 -3 112 -3 2 -8 -9 -12
-26 -9 -42 -28 -28 -20 15 6 35 2 45 -9 18z"/>
<path d="M9544 11875 c-5 -27 -2 -41 9 -52 35 -35 50 33 15 71 -16 18 -17 17
-24 -19z"/>
<path d="M10002 11840 c0 -14 2 -19 5 -12 2 6 2 18 0 25 -3 6 -5 1 -5 -13z"/>
<path d="M10678 11854 c-5 -4 -8 -23 -7 -43 0 -34 1 -34 10 -11 11 27 8 66 -3
54z"/>
<path d="M8703 11810 c3 -13 0 -20 -8 -20 -24 0 -27 -20 -9 -58 15 -32 18 -34
24 -17 4 11 3 25 -2 32 -13 16 -1 34 17 27 7 -3 18 3 24 13 7 15 5 22 -10 31
-28 18 -42 15 -36 -8z"/>
<path d="M9631 11814 c0 -11 3 -14 6 -6 3 7 2 16 -1 19 -3 4 -6 -2 -5 -13z"/>
<path d="M10120 11785 c0 -5 5 -17 10 -25 5 -8 10 -10 10 -5 0 6 -5 17 -10 25
-5 8 -10 11 -10 5z"/>
<path d="M8760 11760 c-12 -8 -10 -10 8 -10 13 0 20 4 17 10 -7 12 -6 12 -25
0z"/>
<path d="M10491 11724 c0 -11 3 -14 6 -6 3 7 2 16 -1 19 -3 4 -6 -2 -5 -13z"/>
<path d="M8650 11715 c0 -9 5 -15 11 -13 6 2 11 8 11 13 0 5 -5 11 -11 13 -6
2 -11 -4 -11 -13z"/>
<path d="M8766 11711 c-12 -13 -14 -21 -6 -26 6 -4 12 -5 13 -4 2 2 8 11 15
21 18 23 -2 31 -22 9z"/>
<path d="M9327 11703 c-4 -3 -7 -13 -7 -22 1 -13 3 -13 11 2 11 19 8 33 -4 20z"/>
<path d="M8892 11680 c0 -14 2 -19 5 -12 2 6 2 18 0 25 -3 6 -5 1 -5 -13z"/>
<path d="M8750 11640 c0 -5 5 -10 10 -10 6 0 10 5 10 10 0 6 -4 10 -10 10 -5
0 -10 -4 -10 -10z"/>
<path d="M9620 11605 c0 -9 6 -12 15 -9 8 4 12 10 9 15 -8 14 -24 10 -24 -6z"/>
<path d="M9080 11568 c0 -15 5 -30 10 -33 13 -8 13 25 0 45 -8 12 -10 9 -10
-12z"/>
<path d="M8781 11568 c-1 -10 -5 -18 -11 -18 -5 0 -7 -7 -3 -17 5 -14 8 -12
15 7 5 13 7 28 4 34 -2 6 -5 3 -5 -6z"/>
<path d="M9611 11570 c0 -8 4 -22 9 -30 12 -18 12 -2 0 25 -6 13 -9 15 -9 5z"/>
<path d="M8860 11555 c0 -8 2 -15 4 -15 2 0 6 7 10 15 3 8 1 15 -4 15 -6 0
-10 -7 -10 -15z"/>
<path d="M9141 11464 c0 -11 3 -14 6 -6 3 7 2 16 -1 19 -3 4 -6 -2 -5 -13z"/>
<path d="M8158 15333 c7 -3 16 -2 19 1 4 3 -2 6 -13 5 -11 0 -14 -3 -6 -6z"/>
<path d="M8223 15316 c-13 -6 -23 -14 -23 -18 0 -5 -10 -8 -22 -8 -12 0 -19
-2 -16 -5 10 -11 98 8 98 21 0 19 -12 22 -37 10z"/>
<path d="M7295 13380 c3 -5 8 -10 11 -10 2 0 4 5 4 10 0 6 -5 10 -11 10 -5 0
-7 -4 -4 -10z"/>
<path d="M9680 13190 c0 -5 11 -10 25 -10 14 0 25 5 25 10 0 6 -11 10 -25 10
-14 0 -25 -4 -25 -10z"/>
<path d="M11328 11974 c-5 -4 -8 -19 -8 -33 0 -18 3 -22 11 -14 6 6 9 21 7 33
-1 12 -6 18 -10 14z"/>
<path d="M11285 11850 c-8 -26 -1 -35 20 -26 18 7 17 37 -2 43 -6 2 -14 -5
-18 -17z"/>
<path d="M10991 11703 c0 -6 -4 -20 -7 -30 -5 -14 -4 -15 5 -7 7 7 11 20 8 30
-3 11 -5 14 -6 7z"/>
<path d="M11195 11683 c-5 -12 -9 -14 -12 -5 -6 15 -23 6 -23 -14 0 -8 7 -14
15 -14 8 0 15 -9 15 -20 0 -26 15 -25 34 2 23 32 21 68 -3 68 -10 0 -22 -8
-26 -17z"/>
<path d="M10689 11538 c-7 -13 -17 -26 -23 -30 -6 -4 -7 -10 -4 -14 9 -9 34
17 42 44 9 29 0 28 -15 0z"/>
<path d="M10925 11447 c-4 -10 -5 -21 -1 -24 10 -10 18 4 13 24 -4 17 -4 17
-12 0z"/>
<path d="M10570 11330 c-13 -32 -5 -55 10 -30 9 15 14 60 6 60 -2 0 -9 -14
-16 -30z"/>
<path d="M11116 11328 c-15 -57 -1 -60 22 -5 9 22 9 27 -2 27 -8 0 -16 -10
-20 -22z"/>
<path d="M10903 11233 c-13 -2 -23 -9 -23 -14 0 -14 24 -11 46 6 19 15 16 16
-23 8z"/>
<path d="M11198 11134 c-3 -3 -4 -14 -1 -25 8 -28 33 -24 33 6 0 23 -18 34
-32 19z"/>
<path d="M10194 11082 c-11 -7 -34 -45 -34 -56 0 -10 36 30 43 47 7 19 7 20
-9 9z"/>
<path d="M10136 11071 c-4 -7 -5 -15 -2 -18 9 -9 19 4 14 18 -4 11 -6 11 -12
0z"/>
<path d="M10430 11028 c-19 -22 -37 -45 -38 -50 -7 -17 24 3 37 25 8 12 21 32
29 45 23 35 10 26 -28 -20z"/>
<path d="M11198 11054 c-5 -4 -8 -23 -7 -43 0 -34 1 -34 10 -11 11 27 8 66 -3
54z"/>
<path d="M10985 11000 c-3 -5 -1 -10 4 -10 6 0 11 5 11 10 0 6 -2 10 -4 10 -3
0 -8 -4 -11 -10z"/>
<path d="M9800 10984 c-15 -8 -19 -14 -9 -14 8 0 19 4 25 9 5 5 20 11 34 14
l25 4 -25 1 c-14 0 -36 -6 -50 -14z"/>
<path d="M9675 10980 c3 -5 8 -10 11 -10 2 0 4 5 4 10 0 6 -5 10 -11 10 -5 0
-7 -4 -4 -10z"/>
<path d="M11186 10941 c-3 -5 1 -14 8 -20 16 -13 32 2 21 19 -8 12 -22 13 -29
1z"/>
<path d="M8710 10921 c12 -8 10 -12 -10 -20 l-25 -10 28 0 c21 -1 28 3 25 16
-2 9 -10 18 -18 20 -13 4 -13 3 0 -6z"/>
<path d="M11223 10901 c-13 -34 -7 -46 13 -26 9 9 11 21 6 34 -7 20 -8 19 -19
-8z"/>
<path d="M8980 10886 c0 -2 7 -7 16 -10 8 -3 12 -2 9 4 -6 10 -25 14 -25 6z"/>
<path d="M9088 10863 c6 -2 18 -2 25 0 6 3 1 5 -13 5 -14 0 -19 -2 -12 -5z"/>
<path d="M10405 10850 c-3 -6 1 -7 9 -4 18 7 21 14 7 14 -6 0 -13 -4 -16 -10z"/>
<path d="M10955 10800 c-3 -6 1 -7 9 -4 18 7 21 14 7 14 -6 0 -13 -4 -16 -10z"/>
<path d="M10352 10731 c-11 -7 -10 -10 3 -15 23 -9 25 -8 25 9 0 17 -9 19 -28
6z"/>
<path d="M10391 10654 c0 -11 3 -14 6 -6 3 7 2 16 -1 19 -3 4 -6 -2 -5 -13z"/>
<path d="M10355 10630 c-3 -5 -1 -10 4 -10 6 0 11 5 11 10 0 6 -2 10 -4 10 -3
0 -8 -4 -11 -10z"/>
<path d="M10960 10626 c0 -9 5 -16 10 -16 6 0 10 4 10 9 0 6 -4 13 -10 16 -5
3 -10 -1 -10 -9z"/>
<path d="M8790 10620 c-12 -8 -9 -10 13 -10 16 0 26 4 22 10 -8 12 -16 12 -35
0z"/>
<path d="M10050 10250 c0 -5 5 -10 11 -10 5 0 7 5 4 10 -3 6 -8 10 -11 10 -2
0 -4 -4 -4 -10z"/>
<path d="M10382 10212 c-59 -49 -27 -100 36 -56 25 17 28 42 10 67 -12 15 -16
14 -46 -11z"/>
<path d="M6220 21730 c0 -5 5 -10 10 -10 6 0 10 5 10 10 0 6 -4 10 -10 10 -5
0 -10 -4 -10 -10z"/>
<path d="M8275 21050 c-3 -5 -1 -10 4 -10 6 0 11 5 11 10 0 6 -2 10 -4 10 -3
0 -8 -4 -11 -10z"/>
<path d="M9990 20781 c0 -5 5 -13 10 -16 6 -3 10 -2 10 4 0 5 -4 13 -10 16 -5
3 -10 2 -10 -4z"/>
<path d="M10150 20525 c7 -8 16 -12 21 -9 13 8 1 24 -18 24 -13 0 -13 -3 -3
-15z"/>
<path d="M10200 20526 c0 -2 11 -6 25 -8 14 -3 25 -1 25 3 0 5 -11 9 -25 9
-14 0 -25 -2 -25 -4z"/>
<path d="M10300 20480 c0 -5 10 -10 23 -10 18 0 19 2 7 10 -19 13 -30 13 -30
0z"/>
<path d="M10915 20390 c27 -12 35 -12 35 0 0 6 -12 10 -27 9 -25 0 -26 -1 -8
-9z"/>
<path d="M11512 20184 c10 -10 20 -16 22 -13 3 3 -5 11 -17 18 -21 13 -21 12
-5 -5z"/>
<path d="M11408 20173 c7 -3 16 -2 19 1 4 3 -2 6 -13 5 -11 0 -14 -3 -6 -6z"/>
<path d="M12205 19939 c17 -6 40 -21 53 -32 24 -22 30 -12 9 16 -6 10 -30 20
-52 22 -39 5 -39 5 -10 -6z"/>
<path d="M12042 19814 c10 -10 20 -15 24 -12 3 4 -5 12 -18 18 -22 12 -22 12
-6 -6z"/>
<path d="M12270 19800 c0 -5 27 -28 60 -50 61 -41 123 -99 150 -138 8 -12 20
-22 27 -22 6 0 21 -14 33 -31 12 -16 24 -28 26 -26 8 7 -36 75 -51 81 -22 8
-48 78 -33 87 8 5 3 10 -15 14 -14 4 -31 13 -38 21 -7 8 -21 11 -35 8 -17 -4
-35 2 -64 23 -22 17 -37 33 -33 36 3 4 -1 7 -10 7 -9 0 -17 -4 -17 -10z"/>
<path d="M12350 19804 c0 -3 6 -12 14 -20 19 -18 27 -18 20 0 -5 14 -34 31
-34 20z"/>
<path d="M12219 19777 c24 -27 41 -34 41 -19 0 4 -15 16 -32 26 l-33 19 24
-26z"/>
<path d="M11978 19723 c12 -2 27 -13 32 -24 6 -10 18 -19 28 -19 13 0 9 6 -13
25 -16 13 -39 24 -50 23 -17 -1 -17 -1 3 -5z"/>
<path d="M12295 19700 c3 -5 16 -15 28 -21 22 -12 22 -12 3 10 -19 21 -43 30
-31 11z"/>
<path d="M12515 19700 c3 -6 11 -10 17 -10 6 0 16 -7 23 -16 6 -10 25 -18 41
-20 16 -2 40 -5 54 -8 l25 -5 -25 10 c-14 6 -43 19 -65 29 -57 26 -77 31 -70
20z"/>
<path d="M12112 19648 c5 -15 28 -23 28 -10 0 5 -7 13 -16 16 -10 4 -14 1 -12
-6z"/>
<path d="M12711 19622 c48 -22 112 -80 132 -117 8 -17 24 -39 36 -49 l21 -19
-11 34 c-6 19 -20 41 -30 51 -11 9 -19 22 -19 30 0 20 -20 37 -36 31 -8 -3
-14 -1 -14 5 0 12 -80 52 -101 51 -8 0 2 -8 22 -17z"/>
<path d="M12160 19615 c7 -9 15 -13 17 -11 7 7 -7 26 -19 26 -6 0 -6 -6 2 -15z"/>
<path d="M12407 19565 c27 -37 48 -41 26 -5 -9 17 -23 30 -31 30 -9 0 -8 -6 5
-25z"/>
<path d="M12597 19490 c-11 -15 -11 -29 -3 -64 15 -65 34 -67 28 -3 -2 29 -4
60 -5 70 -2 22 -3 21 -20 -3z"/>
<path d="M12900 19404 c0 -8 5 -12 10 -9 6 3 10 10 10 16 0 5 -4 9 -10 9 -5 0
-10 -7 -10 -16z"/>
<path d="M12590 19350 c0 -6 7 -13 15 -17 24 -9 27 1 5 15 -13 8 -20 8 -20 2z"/>
<path d="M12901 19344 c0 -11 3 -14 6 -6 3 7 2 16 -1 19 -3 4 -6 -2 -5 -13z"/>
<path d="M12636 19324 c-3 -8 -10 -12 -16 -9 -16 10 -12 -11 5 -25 12 -10 15
-9 15 5 0 17 13 9 80 -47 18 -14 50 -22 50 -12 0 3 -11 15 -25 26 -14 11 -25
29 -25 40 0 17 -4 19 -25 14 -18 -5 -27 -2 -31 9 -8 19 -20 19 -28 -1z"/>
<path d="M13204 18609 c3 -17 7 -50 7 -73 1 -37 2 -38 8 -12 8 40 1 116 -11
116 -6 0 -8 -13 -4 -31z"/>
<path d="M12542 15777 c-12 -13 -22 -27 -22 -32 0 -5 -8 -17 -17 -28 -16 -17
-16 -20 -3 -30 9 -7 17 -25 18 -41 1 -16 6 -34 10 -40 10 -12 7 -136 -3 -178
-5 -17 -2 -34 9 -50 9 -12 16 -36 16 -53 0 -38 30 -132 52 -165 9 -14 22 -47
29 -75 22 -93 44 -159 55 -162 16 -5 53 103 64 188 5 41 10 146 10 235 0 130
-4 171 -19 220 -10 32 -25 86 -32 119 -13 65 -32 95 -60 95 -10 0 -21 5 -24
10 -11 18 -61 11 -83 -13z m86 -121 c2 -9 1 -24 -3 -33 -5 -14 -8 -13 -21 6
-17 24 -12 55 9 49 6 -3 14 -12 15 -22z m30 -210 c-2 -15 -7 -26 -13 -26 -10
0 -16 48 -7 63 8 17 24 -11 20 -37z m0 -97 c4 -55 -16 -129 -29 -108 -19 30
-6 163 15 156 6 -2 12 -23 14 -48z"/>
<path d="M12224 15368 c-4 -6 5 -22 23 -38 16 -15 32 -34 36 -43 3 -9 15 -15
25 -14 19 1 19 3 4 34 -9 20 -21 32 -29 29 -8 -3 -13 2 -13 13 0 10 -7 22 -16
25 -21 8 -22 8 -30 -6z"/>
<path d="M12156 15217 c-4 -17 7 -33 51 -74 62 -58 93 -68 93 -29 0 16 -7 27
-20 31 -11 3 -34 23 -52 44 -42 48 -64 57 -72 28z"/>
<path d="M12048 15164 c-13 -12 -9 -73 6 -102 19 -36 66 -80 66 -61 0 8 -7 23
-15 33 -8 11 -15 30 -15 42 0 12 -6 27 -14 34 -8 6 -16 23 -18 37 -2 14 -6 21
-10 17z"/>
<path d="M12671 14864 c0 -11 3 -14 6 -6 3 7 2 16 -1 19 -3 4 -6 -2 -5 -13z"/>
<path d="M12455 14816 c-27 -36 -85 -76 -110 -76 -7 0 -16 -8 -19 -18 -5 -13
-18 -19 -49 -20 -33 -2 -48 -9 -69 -33 -15 -17 -30 -41 -34 -52 -3 -12 -17
-46 -30 -75 -29 -63 -48 -146 -40 -168 5 -13 9 -13 33 0 36 20 58 44 124 140
57 84 73 96 98 77 44 -32 77 -40 122 -29 24 6 54 20 65 32 12 11 34 21 50 23
16 3 35 10 44 16 13 10 13 10 2 -5 -7 -9 -9 -19 -4 -22 16 -9 35 51 27 81 -5
16 -8 39 -9 53 -1 14 -5 23 -11 21 -5 -2 -16 -6 -23 -8 -14 -6 -42 14 -42 29
0 16 -63 68 -82 68 -9 0 -29 -16 -43 -34z"/>
<path d="M12593 14508 c-18 -24 -24 -38 -16 -38 4 0 13 11 20 25 12 27 11 32
-4 13z"/>
<path d="M12497 14443 c-4 -3 -7 -18 -8 -32 l-1 -26 -8 25 c-8 26 -14 11 -10
-25 6 -58 38 -65 64 -14 12 25 12 29 0 29 -8 0 -14 7 -14 16 0 9 5 12 13 8 8
-5 8 -2 -2 9 -14 18 -24 21 -34 10z"/>
<path d="M6822 9509 c-96 -12 -179 -55 -233 -120 -63 -76 -83 -107 -103 -161
-19 -50 -32 -66 -111 -124 -125 -94 -165 -126 -165 -133 0 -4 -19 -18 -42 -31
-24 -13 -54 -34 -68 -47 -14 -12 -50 -43 -80 -68 -144 -120 -178 -156 -185
-192 -3 -20 -16 -44 -28 -54 -12 -10 -17 -18 -11 -19 12 0 46 30 66 59 10 14
30 22 67 26 36 4 51 3 46 -4 -3 -6 1 -11 9 -11 9 0 16 -5 16 -10 0 -7 6 -7 19
0 11 5 30 10 43 11 22 0 22 1 3 9 -19 8 -19 9 -1 9 13 1 17 6 13 20 -4 16 2
21 24 26 16 4 31 11 34 16 4 5 15 9 25 9 10 0 40 20 65 45 42 40 51 44 92 43
29 0 40 -4 32 -9 -11 -7 -10 -9 4 -9 9 0 17 -4 17 -9 0 -4 11 -20 25 -35 14
-15 25 -38 25 -52 0 -31 28 -44 45 -21 7 10 17 17 24 17 6 0 11 6 11 13 0 6 5
19 10 27 8 13 11 13 19 1 6 -10 12 3 21 42 13 63 33 108 55 127 17 14 20 46 6
54 -15 9 14 88 45 125 40 48 117 121 127 121 5 0 25 8 44 17 34 16 36 16 49
-1 11 -16 13 -16 17 6 4 23 4 23 7 -2 1 -14 10 13 20 60 15 71 37 137 77 228
6 14 -71 15 -175 1z m-294 -591 c-8 -23 -120 -95 -140 -90 -21 5 -24 22 -5 22
8 0 24 9 37 20 13 11 26 20 30 20 4 0 17 9 30 20 26 22 54 27 48 8z"/>
<path d="M6920 9140 c0 -17 -13 -56 -29 -88 -15 -31 -31 -77 -35 -102 -4 -24
-11 -49 -15 -55 -5 -5 -11 -23 -15 -40 -10 -40 -57 -135 -68 -135 -13 0 -45
-35 -41 -46 2 -6 -15 -33 -37 -61 -22 -28 -40 -56 -40 -63 0 -11 -86 -150
-111 -178 -9 -11 -6 -17 11 -29 17 -12 19 -17 9 -24 -29 -18 97 1 136 21 21
11 47 20 56 20 47 0 229 171 247 232 23 78 31 116 37 163 6 55 35 89 68 79 17
-5 17 -4 2 33 -9 21 -34 63 -55 95 -22 31 -56 90 -76 132 -19 42 -37 76 -40
76 -2 0 -4 -14 -4 -30z"/>
<path d="M13455 9005 c-42 -19 -3 -19 50 0 38 13 39 14 10 14 -16 0 -43 -6
-60 -14z"/>
<path d="M12930 9000 c-14 -4 -49 -20 -77 -34 -29 -14 -59 -26 -66 -26 -7 0
-17 -4 -22 -9 -6 -4 -50 -20 -100 -36 -49 -15 -118 -38 -152 -51 -34 -13 -76
-27 -93 -30 -26 -6 -87 -60 -77 -70 5 -6 201 59 272 91 17 7 55 23 85 35 51
20 270 126 279 136 7 6 -21 3 -49 -6z"/>
<path d="M9714 8972 c-13 -8 0 -52 15 -52 6 0 22 5 36 12 l25 11 -27 19 c-31
20 -34 21 -49 10z"/>
<path d="M10355 8850 c10 -11 20 -20 23 -20 3 0 -3 9 -13 20 -10 11 -20 20
-23 20 -3 0 3 -9 13 -20z"/>
<path d="M6560 8760 c0 -5 5 -10 10 -10 6 0 10 5 10 10 0 6 -4 10 -10 10 -5 0
-10 -4 -10 -10z"/>
<path d="M7190 8735 c0 -8 21 -42 48 -74 29 -37 54 -82 66 -120 11 -35 25 -61
33 -61 7 0 13 -7 13 -16 0 -9 14 -30 30 -46 17 -15 30 -34 30 -41 0 -6 19 -22
43 -35 23 -12 80 -59 127 -105 138 -133 212 -198 252 -218 35 -18 37 -18 31
-2 -10 27 -125 164 -241 287 -59 62 -133 155 -173 217 -65 100 -76 112 -160
168 -50 34 -92 61 -95 61 -2 0 -4 -7 -4 -15z"/>
<path d="M10450 8739 c0 -21 24 -53 38 -48 7 3 3 15 -13 34 -16 20 -24 25 -25
14z"/>
<path d="M10420 8696 c0 -8 5 -18 10 -21 6 -3 10 3 10 14 0 12 -4 21 -10 21
-5 0 -10 -6 -10 -14z"/>
<path d="M10503 8666 c-6 -8 -10 -16 -7 -19 3 -2 -8 -2 -23 0 -27 4 -27 4 -9
-11 17 -14 17 -16 3 -22 -21 -8 -22 -34 -2 -34 24 0 29 -27 11 -55 -16 -24
-16 -26 11 -50 15 -13 45 -32 65 -42 21 -10 38 -22 38 -27 0 -5 7 -17 16 -27
22 -25 10 -54 -31 -73 -37 -18 -62 -45 -30 -32 10 4 69 16 129 28 61 12 115
25 120 30 6 4 1 17 -11 30 -34 37 -103 132 -103 142 0 5 -10 18 -23 30 -12 11
-29 30 -37 41 -8 11 -28 28 -43 38 -15 10 -33 29 -39 43 -13 27 -18 29 -35 10z"/>
<path d="M10845 8250 c1 -11 11 -30 23 -43 25 -26 30 -47 6 -23 -13 14 -34 22
-34 13 0 -12 43 -82 72 -118 19 -24 38 -52 41 -61 4 -10 11 -18 17 -18 5 0 10
-6 10 -14 0 -12 68 -88 189 -212 28 -28 52 -46 55 -40 2 6 5 1 5 -11 1 -23 36
-50 45 -35 6 10 -32 72 -44 72 -5 0 -11 8 -15 19 -3 10 -15 29 -27 42 -22 26
-94 119 -118 153 -8 12 -35 48 -60 80 -25 32 -52 70 -62 83 -9 14 -32 43 -52
63 -20 21 -36 43 -36 49 0 5 -4 12 -8 15 -5 3 -8 -4 -7 -14z"/>
<path d="M7402 8220 c0 -14 2 -19 5 -12 2 6 2 18 0 25 -3 6 -5 1 -5 -13z"/>
<path d="M7433 8194 c-7 -7 -13 -18 -13 -24 0 -17 -18 -11 -23 8 -3 11 -5 9
-6 -8 -1 -30 24 -70 45 -70 8 0 14 -4 14 -9 0 -4 22 -32 49 -62 78 -85 81 -89
81 -94 0 -3 33 -40 73 -81 39 -41 80 -92 89 -112 16 -35 16 -38 -2 -67 -10
-16 -40 -72 -66 -123 -25 -52 -56 -103 -68 -115 -43 -43 -104 -133 -124 -182
-64 -157 -95 -452 -54 -506 14 -18 19 -45 20 -104 3 -87 -14 -170 -107 -520
-28 -107 -62 -266 -77 -365 -14 -96 -30 -200 -35 -230 -16 -92 -22 -150 -16
-150 7 0 57 90 57 103 0 16 82 192 92 195 4 2 8 14 8 27 0 13 5 27 10 30 12 7
4 -37 -11 -67 -5 -9 -9 -28 -9 -42 0 -14 -4 -26 -10 -26 -5 0 -10 -10 -10 -23
0 -13 -4 -27 -9 -33 -16 -17 -70 -208 -76 -269 -4 -33 -13 -98 -21 -145 -7
-47 -32 -218 -54 -380 -22 -162 -45 -311 -50 -330 -41 -157 -142 -1024 -139
-1185 l2 -60 8 80 c5 44 20 159 34 255 14 96 30 209 35 250 6 41 18 113 26
160 23 135 83 501 110 670 39 249 62 378 120 675 29 154 65 345 79 425 27 159
28 164 109 555 131 641 140 677 212 859 47 120 81 180 161 284 37 48 86 116
110 152 23 36 47 70 53 77 25 30 7 30 -21 1 -17 -18 -27 -26 -23 -18 6 12 4
13 -7 3 -20 -19 -31 -16 -20 6 7 13 6 24 -4 37 -8 11 -19 36 -25 57 -12 42
-31 47 -82 21 l-31 -16 -91 94 c-50 51 -98 107 -106 123 -18 37 -57 92 -88
125 -13 13 -30 39 -37 57 -8 18 -25 38 -39 44 -14 7 -26 22 -28 34 -2 19 -5
21 -15 9z"/>
<path d="M9980 8145 c-25 -7 -80 -22 -124 -34 -43 -12 -97 -28 -120 -36 -22
-9 -81 -29 -131 -46 -49 -17 -94 -35 -99 -39 -13 -13 7 -8 169 44 83 26 182
57 220 68 104 31 173 57 150 57 -11 0 -40 -6 -65 -14z"/>
<path d="M15788 8113 c6 -2 18 -2 25 0 6 3 1 5 -13 5 -14 0 -19 -2 -12 -5z"/>
<path d="M15865 8110 c-4 -7 3 -8 22 -4 38 9 42 14 10 14 -14 0 -29 -5 -32
-10z"/>
<path d="M15561 8090 c-58 -11 -116 -23 -130 -28 -14 -6 -44 -14 -66 -20 -81
-22 -246 -73 -281 -88 -64 -27 -27 -27 48 -1 170 60 497 143 534 136 25 -4 64
2 64 11 0 14 -49 11 -169 -10z"/>
<path d="M7960 7911 c0 -5 5 -13 10 -16 6 -3 10 -2 10 4 0 5 -4 13 -10 16 -5
3 -10 2 -10 -4z"/>
<path d="M14955 7910 c-4 -7 3 -8 22 -4 38 9 42 14 10 14 -14 0 -29 -5 -32
-10z"/>
<path d="M8243 7885 c4 -8 2 -17 -3 -20 -6 -4 -10 -11 -10 -17 0 -7 6 -6 15 2
17 14 20 50 4 50 -6 0 -9 -7 -6 -15z"/>
<path d="M14918 7893 c7 -3 16 -2 19 1 4 3 -2 6 -13 5 -11 0 -14 -3 -6 -6z"/>
<path d="M8000 7859 c0 -10 8 -27 19 -38 10 -10 31 -36 46 -57 15 -22 25 -31
22 -21 -10 29 2 19 15 -13 l13 -30 42 55 c41 52 49 72 17 40 -21 -21 -26 -20
-71 23 -23 20 -55 42 -72 49 -28 10 -31 9 -31 -8z"/>
<path d="M4056 6704 c-7 -18 0 -34 15 -34 5 0 9 11 9 25 0 28 -15 34 -24 9z"/>
<path d="M4033 6560 c-8 -21 -9 -39 -3 -49 8 -15 9 -15 15 1 4 9 5 31 3 48
l-3 33 -12 -33z"/>
<path d="M6820 4554 c0 -8 -9 -35 -21 -60 -11 -25 -18 -51 -16 -57 2 -7 13 8
25 33 28 62 37 100 23 100 -6 0 -11 -7 -11 -16z"/>
<path d="M6770 4389 c0 -5 5 -7 10 -4 6 3 10 8 10 11 0 2 -4 4 -10 4 -5 0 -10
-5 -10 -11z"/>
<path d="M6726 4314 c-11 -22 -23 -47 -28 -56 -4 -10 -5 -18 -2 -18 13 0 33
35 34 57 0 12 5 23 12 25 6 2 9 10 7 17 -3 7 -13 -4 -23 -25z"/>
<path d="M6525 3900 c-3 -5 -1 -10 4 -10 6 0 11 5 11 10 0 6 -2 10 -4 10 -3 0
-8 -4 -11 -10z"/>
<path d="M6501 3834 c0 -11 3 -14 6 -6 3 7 2 16 -1 19 -3 4 -6 -2 -5 -13z"/>
<path d="M6462 3773 c-8 -18 -9 -30 -2 -37 15 -15 22 -2 18 33 l-3 31 -13 -27z"/>
<path d="M6397 3625 c-4 -11 -16 -36 -27 -55 -30 -54 -23 -59 11 -7 17 26 29
54 27 64 -3 16 -5 16 -11 -2z"/>
<path d="M6316 3484 c-4 -9 -4 -19 -1 -22 2 -3 7 3 11 12 4 9 4 19 1 22 -2 3
-7 -3 -11 -12z"/>
<path d="M6265 3397 c-4 -10 -5 -21 -1 -24 10 -10 18 4 13 24 -4 17 -4 17 -12
0z"/>
<path d="M6227 3320 c-9 -22 -17 -46 -17 -53 0 -7 -4 -17 -9 -22 -10 -12 -71
-150 -112 -255 -16 -41 -34 -84 -39 -95 -5 -11 -23 -51 -40 -90 -17 -38 -38
-83 -45 -100 -8 -16 -31 -70 -51 -120 -19 -49 -40 -94 -45 -100 -5 -5 -9 -15
-9 -22 0 -8 -9 -33 -21 -56 -11 -23 -29 -69 -41 -102 -11 -33 -31 -88 -44
-122 -13 -34 -24 -67 -24 -75 1 -18 30 21 30 40 0 8 6 20 13 26 7 6 21 31 31
56 10 25 22 53 27 62 5 10 9 26 9 37 0 10 6 24 14 30 8 7 17 24 21 38 3 15 30
76 59 137 29 61 66 144 81 184 16 40 32 75 37 78 4 3 8 14 8 25 0 10 5 19 11
19 6 0 8 9 4 21 -5 13 -3 19 3 15 5 -3 9 0 9 7 -1 6 8 32 20 57 45 92 73 159
73 172 0 21 24 84 38 101 7 8 16 31 19 51 3 20 10 36 14 36 5 0 9 14 9 30 0
41 -12 38 -33 -10z"/>
<path d="M16221 2463 c-7 -24 -7 -41 -1 -47 7 -7 10 -3 11 10 1 10 3 31 5 47
4 38 -3 34 -15 -10z"/>
<path d="M16192 2358 c-30 -75 -40 -118 -29 -118 7 0 6 -4 -2 -9 -8 -5 -11
-16 -8 -25 4 -10 1 -16 -8 -16 -8 0 -15 -7 -15 -16 0 -9 5 -12 11 -8 7 4 2 -6
-9 -22 -12 -16 -23 -40 -26 -54 -2 -14 -9 -38 -16 -55 -6 -16 -12 -32 -12 -35
0 -3 -2 -9 -4 -15 -1 -5 -12 -44 -24 -85 -12 -41 -26 -84 -32 -96 -10 -22 -43
-140 -117 -419 -58 -218 -68 -249 -141 -440 -32 -82 -63 -168 -69 -190 -32
-123 -64 -252 -66 -265 -1 -8 -5 -22 -8 -30 -3 -8 -11 -37 -18 -65 -6 -27 -16
-56 -22 -62 -5 -7 -7 -13 -3 -13 3 0 -1 -17 -10 -37 -9 -21 -22 -58 -29 -83
-7 -25 -25 -74 -39 -109 -30 -74 -32 -91 -12 -91 19 0 59 79 100 201 19 57 43
125 55 151 37 86 121 357 161 518 15 59 101 357 146 505 51 169 100 333 107
360 3 11 20 70 37 130 39 142 115 439 124 488 8 46 -5 49 -22 5z"/>
<path d="M6364 2323 c-4 -10 -34 -85 -69 -168 -35 -82 -99 -238 -144 -345
-104 -248 -135 -321 -248 -580 -52 -119 -88 -189 -118 -231 -19 -27 -51 -81
-71 -121 -20 -40 -52 -94 -70 -121 -19 -26 -34 -50 -34 -55 0 -4 -11 -24 -25
-45 -14 -20 -40 -63 -57 -94 -17 -32 -57 -96 -88 -143 -31 -47 -67 -103 -80
-125 -23 -41 -78 -130 -135 -220 -17 -27 -35 -56 -39 -62 -6 -10 37 -13 202
-13 l209 0 33 72 c18 40 41 91 51 113 59 133 193 490 297 795 39 113 105 304
147 425 42 121 82 243 90 270 8 28 24 82 36 120 11 39 34 115 49 170 15 55 38
127 50 160 12 33 24 74 25 90 2 17 5 37 8 45 3 8 8 30 11 48 4 24 2 32 -10 32
-8 0 -17 -8 -20 -17z"/>
<path d="M5710 2080 c0 -5 5 -10 10 -10 6 0 10 5 10 10 0 6 -4 10 -10 10 -5 0
-10 -4 -10 -10z"/>
<path d="M6870 2083 c0 -5 -9 -53 -21 -108 -47 -233 -91 -521 -114 -755 -8
-80 -19 -179 -24 -220 -5 -41 -14 -124 -21 -185 -13 -126 -38 -277 -75 -450
-14 -66 -28 -175 -32 -242 l-6 -123 60 0 61 0 6 77 c3 43 17 236 31 428 57
798 69 934 124 1400 19 156 22 185 16 185 -3 0 -5 -3 -5 -7z"/>
<path d="M13645 1991 c11 -5 63 -19 115 -31 52 -12 136 -38 185 -57 50 -19
115 -42 146 -53 30 -10 73 -27 95 -39 21 -12 46 -21 54 -21 8 0 31 -10 50 -22
32 -19 131 -47 173 -48 33 0 17 21 -30 41 -27 12 -70 31 -98 45 -77 37 -399
140 -510 164 -112 24 -212 36 -180 21z"/>
<path d="M14556 1682 c22 -18 48 -59 63 -103 10 -27 41 -39 102 -39 41 0 39 5
-20 65 -49 49 -118 95 -145 95 l-21 0 21 -18z"/>
<path d="M14858 1528 c12 -12 25 -18 29 -14 4 4 -1 14 -11 22 -31 22 -43 17
-18 -8z"/>
<path d="M14749 1523 c-1 -5 -1 -16 0 -25 2 -11 -10 -22 -32 -32 -21 -8 -39
-25 -46 -42 -6 -16 -16 -36 -23 -45 -9 -13 -8 -28 5 -70 9 -30 21 -90 26 -134
12 -101 24 -131 66 -175 18 -19 46 -60 63 -90 16 -30 40 -72 54 -92 14 -20 30
-65 37 -100 14 -76 50 -197 101 -338 34 -95 58 -200 51 -225 -1 -5 0 -7 4 -3
18 18 35 -24 35 -86 0 -74 14 -88 23 -23 9 62 0 521 -12 602 -6 39 -13 94 -16
124 -3 36 -21 85 -53 150 l-47 96 -5 141 c-6 162 0 151 -114 242 -45 36 -74
68 -85 93 -15 36 -29 50 -32 32z"/>
<path d="M15001 1506 c-8 -9 -11 -19 -7 -23 9 -9 29 13 24 27 -2 8 -8 7 -17
-4z"/>
<path d="M14995 1460 c-3 -5 -1 -10 4 -10 6 0 11 5 11 10 0 6 -2 10 -4 10 -3
0 -8 -4 -11 -10z"/>
<path d="M7352 1340 c0 -14 2 -19 5 -12 2 6 2 18 0 25 -3 6 -5 1 -5 -13z"/>
<path d="M7328 1235 c-2 -19 0 -35 4 -35 4 0 8 16 8 35 0 19 -2 35 -4 35 -2 0
-6 -16 -8 -35z"/>
<path d="M7323 1100 c0 -36 2 -50 4 -32 2 17 2 47 0 65 -2 17 -4 3 -4 -33z"/>
<path d="M15256 851 c-8 -64 3 -175 15 -142 9 23 7 177 -3 186 -3 3 -8 -17
-12 -44z"/>
<path d="M16131 864 c0 -11 3 -14 6 -6 3 7 2 16 -1 19 -3 4 -6 -2 -5 -13z"/>
<path d="M16146 716 c4 -91 0 -120 -27 -233 -17 -70 -35 -148 -39 -173 -12
-65 -46 -198 -64 -249 -9 -24 -16 -47 -16 -52 0 -5 29 -9 65 -9 l65 0 -6 55
c-4 32 -3 60 4 67 13 17 23 112 27 255 1 65 6 125 9 134 12 28 2 302 -10 306
-9 3 -11 -25 -8 -101z"/>
<path d="M7248 500 c-13 -45 -9 -150 6 -166 13 -12 15 -12 19 4 3 9 5 4 6 -13
2 -51 19 -96 47 -122 14 -13 28 -22 30 -20 8 8 -23 111 -35 115 -6 2 -11 12
-11 21 0 10 -9 28 -20 40 -17 21 -25 53 -32 136 -3 30 -3 30 -10 5z"/>
<path d="M4720 420 c0 -19 3 -21 12 -12 9 9 9 15 0 24 -9 9 -12 7 -12 -12z"/>
<path d="M4690 364 c0 -8 5 -12 10 -9 6 3 10 10 10 16 0 5 -4 9 -10 9 -5 0
-10 -7 -10 -16z"/>
<path d="M4643 313 c18 -5 24 -33 7 -33 -5 0 -10 -7 -10 -16 0 -23 35 -12 35
11 1 11 4 26 8 33 6 9 -1 12 -25 11 -18 -1 -25 -3 -15 -6z"/>
<path d="M4616 194 c-3 -26 -11 -53 -18 -61 -8 -10 -8 -17 0 -25 8 -8 13 -6
19 8 4 10 12 24 19 29 6 6 14 29 18 53 5 37 4 42 -13 42 -14 0 -20 -10 -25
-46z"/>
</g>
</svg>
